<?xml version="1.0" encoding="UTF-8"?>
<svg xmlns="http://www.w3.org/2000/svg" xmlns:xlink="http://www.w3.org/1999/xlink" viewBox="0 0 600 250">
  <defs>
    <clipPath id="clippath">
      <polygon points="246.59 73.31 257.41 57.95 264.04 64.23 277.31 46.78 277.31 73.31 246.59 73.31" fill="none"/>
    </clipPath>
  </defs>
  <g id="Hintergrund">
    <rect x="-.17" width="600" height="250" fill="#f2fcf3"/>
  </g>
  <g id="Graphic">
    <rect x="234.67" y="29.26" width="143.38" height="202.88" fill="#bfeec2"/>
    <rect x="228.69" y="23.51" width="143.38" height="202.88" fill="#80d980"/>
    <g>
      <rect x="246.59" y="42.58" width="30.73" height="30.73" fill="none"/>
      <polygon points="246.59 73.31 257.41 57.95 264.04 64.23 277.31 46.78 277.31 73.31 246.59 73.31" fill="#fff" opacity=".6"/>
      <g clip-path="url(#clippath)">
        <polyline points="246.59 73.31 257.41 57.95 264.04 64.23 277.31 46.78" fill="none" stroke="#fff" stroke-miterlimit="10" stroke-width="2"/>
      </g>
    </g>
    <line x1="291.07" y1="52.2" x2="347.43" y2="52.2" fill="none" stroke="#fff" stroke-linecap="round" stroke-miterlimit="10" stroke-width="2.13"/>
    <line x1="291.07" y1="61.7" x2="347.43" y2="61.7" fill="none" stroke="#fff" stroke-linecap="round" stroke-miterlimit="10" stroke-width="2.13"/>
    <g>
      <g>
        <g>
          <rect x="246.79" y="87.2" width="30.73" height="30.73" fill="none"/>
          <rect x="248.84" y="109.64" width="9.69" height="7.05" transform="translate(140.52 366.84) rotate(-90)" fill="#fff"/>
          <rect x="252.3" y="104.42" width="20.12" height="7.05" transform="translate(154.41 370.3) rotate(-90)" fill="#fff" opacity=".6"/>
          <rect x="256.84" y="100.29" width="28.38" height="7.05" transform="translate(167.21 374.85) rotate(-90)" fill="#fff" opacity=".6"/>
        </g>
        <line x1="291.07" y1="94.28" x2="347.43" y2="94.28" fill="none" stroke="#fff" stroke-linecap="round" stroke-miterlimit="10" stroke-width="2.13"/>
      </g>
      <line x1="291.07" y1="103.78" x2="347.43" y2="103.78" fill="none" stroke="#fff" stroke-linecap="round" stroke-miterlimit="10" stroke-width="2.13"/>
    </g>
    <g>
      <g>
        <rect x="246.79" y="176.51" width="30.73" height="30.73" fill="none"/>
        <rect x="248.84" y="198.95" width="9.69" height="7.05" transform="translate(51.21 456.15) rotate(-90)" fill="#fff" opacity=".6"/>
        <rect x="252.3" y="193.73" width="20.12" height="7.05" transform="translate(65.1 459.61) rotate(-90)" fill="#fff" opacity=".6"/>
        <rect x="256.84" y="189.6" width="28.38" height="7.05" transform="translate(77.9 464.16) rotate(-90)" fill="#fff"/>
      </g>
      <line x1="291.07" y1="183.59" x2="347.43" y2="183.59" fill="none" stroke="#fff" stroke-linecap="round" stroke-miterlimit="10" stroke-width="2.13"/>
      <line x1="291.07" y1="193.09" x2="347.43" y2="193.09" fill="none" stroke="#fff" stroke-linecap="round" stroke-miterlimit="10" stroke-width="2.13"/>
    </g>
    <g>
      <line x1="291.07" y1="137" x2="347.43" y2="137" fill="none" stroke="#fff" stroke-linecap="round" stroke-miterlimit="10" stroke-width="2.13"/>
      <line x1="291.07" y1="146.5" x2="347.43" y2="146.5" fill="none" stroke="#fff" stroke-linecap="round" stroke-miterlimit="10" stroke-width="2.13"/>
      <g>
        <g>
          <rect x="246.74" y="131.89" width="30.73" height="30.73" fill="none"/>
          <path d="M271.4,137.97c2.38,2.38,3.85,5.66,3.85,9.29,0,7.26-5.88,13.14-13.14,13.14s-13.14-5.88-13.14-13.14,5.88-13.14,13.14-13.14v13.14l9.29-9.29Z" fill="#fff"/>
        </g>
        <g opacity=".6">
          <path d="M271.4,156.55c-2.38,2.38-5.66,3.85-9.29,3.85-7.26,0-13.14-5.88-13.14-13.14s5.88-13.14,13.14-13.14,13.14,5.88,13.14,13.14h-13.14l9.29,9.29Z" fill="#fff"/>
        </g>
      </g>
    </g>
  </g>
</svg>