<?xml version="1.0" encoding="UTF-8"?>
<svg xmlns="http://www.w3.org/2000/svg" viewBox="0 0 471.19 250">
  <g id="Hintergrund">
    <rect x=".9" y="-.88" width="471.19" height="250" fill="#f3f5fa"/>
  </g>
  <g id="Text">
    <text transform="translate(68.95 223.16) rotate(-90)" font-family="Ubuntu-Regular, Ubuntu" font-size="10"><tspan x="0" y="0" letter-spacing="-.01em">C</tspan><tspan x="6.05" y="0">ount</tspan><tspan x="27.45" y="0" letter-spacing=".02em">r</tspan><tspan x="31.52" y="0">y A</tspan></text>
    <text transform="translate(104.75 222.96) rotate(-90)" font-family="Ubuntu-Regular, Ubuntu" font-size="10"><tspan x="0" y="0" letter-spacing="-.01em">C</tspan><tspan x="6.05" y="0">ount</tspan><tspan x="27.45" y="0" letter-spacing=".02em">r</tspan><tspan x="31.52" y="0">y B</tspan></text>
    <text transform="translate(140.88 222.73) rotate(-90)" font-family="Ubuntu-Regular, Ubuntu" font-size="10"><tspan x="0" y="0" letter-spacing="-.01em">C</tspan><tspan x="6.05" y="0">ount</tspan><tspan x="27.45" y="0" letter-spacing=".02em">r</tspan><tspan x="31.52" y="0">y C</tspan></text>
    <text transform="translate(37.43 167.06)" fill="#58585a" font-family="Ubuntu-Regular, Ubuntu" font-size="10"><tspan x="0" y="0">0</tspan></text>
    <text transform="translate(31.79 147.8)" fill="#58585a" font-family="Ubuntu-Regular, Ubuntu" font-size="10"><tspan x="0" y="0">20</tspan></text>
    <text transform="translate(31.79 126.15)" fill="#58585a" font-family="Ubuntu-Regular, Ubuntu" font-size="10"><tspan x="0" y="0">40</tspan></text>
    <text transform="translate(31.79 104.49)" fill="#58585a" font-family="Ubuntu-Regular, Ubuntu" font-size="10"><tspan x="0" y="0">60</tspan></text>
    <text transform="translate(31.79 82.84)" fill="#58585a" font-family="Ubuntu-Regular, Ubuntu" font-size="10"><tspan x="0" y="0">80</tspan></text>
    <g>
      <line x1="45.42" y1="144.73" x2="164.57" y2="144.73" fill="none" stroke="#c0c1c3" stroke-linecap="round" stroke-miterlimit="10" stroke-width=".57"/>
      <line x1="45.42" y1="123.07" x2="164.57" y2="123.07" fill="none" stroke="#c0c1c3" stroke-linecap="round" stroke-miterlimit="10" stroke-width=".57"/>
      <line x1="45.42" y1="101.42" x2="164.57" y2="101.42" fill="none" stroke="#c0c1c3" stroke-linecap="round" stroke-miterlimit="10" stroke-width=".57"/>
      <line x1="45.42" y1="79.76" x2="164.57" y2="79.76" fill="none" stroke="#c0c1c3" stroke-linecap="round" stroke-miterlimit="10" stroke-width=".57"/>
      <line x1="45.42" y1="166.39" x2="164.57" y2="166.39" fill="none" stroke="#c0c1c3" stroke-linecap="round" stroke-miterlimit="10" stroke-width=".85"/>
    </g>
    <g>
      <rect x="58.38" y="79.76" width="18.98" height="86.62" fill="#039"/>
      <rect x="93.36" y="90.59" width="18.98" height="75.79" fill="#039"/>
      <rect x="127.3" y="123.07" width="18.98" height="43.31" fill="#039"/>
    </g>
    <g>
      <text transform="translate(260.67 105.25)" fill="#1a181b" font-family="Ubuntu-Regular, Ubuntu" font-size="10"><tspan x="0" y="0" letter-spacing="-.02em">C</tspan><tspan x="6.05" y="0">ount</tspan><tspan x="27.45" y="0" letter-spacing=".02em">r</tspan><tspan x="31.52" y="0">y A</tspan></text>
      <text transform="translate(260.81 134.21)" fill="#1a181b" font-family="Ubuntu-Regular, Ubuntu" font-size="10"><tspan x="0" y="0" letter-spacing="-.02em">C</tspan><tspan x="6.05" y="0">ount</tspan><tspan x="27.45" y="0" letter-spacing=".02em">r</tspan><tspan x="31.52" y="0">y B</tspan></text>
      <text transform="translate(260.97 163.76)" fill="#1a181b" font-family="Ubuntu-Regular, Ubuntu" font-size="10"><tspan x="0" y="0" letter-spacing="-.02em">C</tspan><tspan x="6.05" y="0">ount</tspan><tspan x="27.45" y="0" letter-spacing=".02em">r</tspan><tspan x="31.52" y="0">y C</tspan></text>
      <text transform="translate(310.33 82.84)" fill="#58585a" font-family="Ubuntu-Regular, Ubuntu" font-size="10"><tspan x="0" y="0">0</tspan></text>
      <text transform="translate(335.98 82.84)" fill="#58585a" font-family="Ubuntu-Regular, Ubuntu" font-size="10"><tspan x="0" y="0">20</tspan></text>
      <text transform="translate(364.17 82.84)" fill="#58585a" font-family="Ubuntu-Regular, Ubuntu" font-size="10"><tspan x="0" y="0">40</tspan></text>
      <text transform="translate(392.35 82.84)" fill="#58585a" font-family="Ubuntu-Regular, Ubuntu" font-size="10"><tspan x="0" y="0">60</tspan></text>
      <text transform="translate(420.54 82.84)" fill="#58585a" font-family="Ubuntu-Regular, Ubuntu" font-size="10"><tspan x="0" y="0">80</tspan></text>
      <g>
        <line x1="341.62" y1="88.77" x2="341.62" y2="171.7" fill="none" stroke="#c0c1c3" stroke-linecap="round" stroke-miterlimit="10" stroke-width=".57"/>
        <line x1="369.81" y1="88.77" x2="369.81" y2="171.7" fill="none" stroke="#c0c1c3" stroke-linecap="round" stroke-miterlimit="10" stroke-width=".57"/>
        <line x1="397.99" y1="88.77" x2="397.99" y2="171.7" fill="none" stroke="#c0c1c3" stroke-linecap="round" stroke-miterlimit="10" stroke-width=".57"/>
        <line x1="426.18" y1="88.77" x2="426.18" y2="171.7" fill="none" stroke="#c0c1c3" stroke-linecap="round" stroke-miterlimit="10" stroke-width=".57"/>
        <line x1="313.44" y1="88.77" x2="313.44" y2="171.7" fill="none" stroke="#c0c1c3" stroke-linecap="round" stroke-miterlimit="10" stroke-width=".85"/>
      </g>
      <g>
        <rect x="313.44" y="93" width="112.74" height="18.98" fill="#039"/>
        <rect x="313.44" y="120.8" width="98.65" height="18.98" fill="#039"/>
        <rect x="313.44" y="148.95" width="56.37" height="18.98" fill="#039"/>
      </g>
    </g>
    <rect x="260.49" y="28.65" width="38.7" height=".94" fill="#039"/>
    <rect x="31.79" y="29.6" width="53.02" height=".94" fill="#039"/>
    <text transform="translate(260.67 26.24)" font-family="Ubuntu-Bold, Ubuntu" font-size="10"><tspan x="0" y="0">BE</tspan><tspan x="12.78" y="0" letter-spacing=".03em">T</tspan><tspan x="19.18" y="0">TER</tspan></text>
    <text transform="translate(30.97 27.19)" font-family="Ubuntu-Bold, Ubuntu" font-size="10"><tspan x="0" y="0">N</tspan><tspan x="7.56" y="0" letter-spacing="-.02em">O</tspan><tspan x="15.23" y="0" letter-spacing="0em">T IDEAL</tspan></text>
  </g>
</svg>