<?xml version="1.0" encoding="UTF-8"?>
<svg xmlns="http://www.w3.org/2000/svg" viewBox="0 0 471.19 250">
  <g id="Hintergrund">
    <rect x="1.46" y="-.88" width="471.19" height="250" fill="#f3f5fa"/>
  </g>
  <g id="Graphic">
    <line x1="217.29" y1="217.83" x2="63.68" y2="217.83" fill="none" stroke="#c0c1c3" stroke-linecap="round" stroke-miterlimit="10" stroke-width=".85"/>
    <line x1="217.29" y1="201.65" x2="63.68" y2="201.65" fill="none" stroke="#c0c1c3" stroke-linecap="round" stroke-miterlimit="10" stroke-width=".57"/>
    <line x1="217.29" y1="185.47" x2="63.68" y2="185.47" fill="none" stroke="#c0c1c3" stroke-linecap="round" stroke-miterlimit="10" stroke-width=".57"/>
    <line x1="217.29" y1="169.29" x2="63.68" y2="169.29" fill="none" stroke="#c0c1c3" stroke-linecap="round" stroke-miterlimit="10" stroke-width=".57"/>
    <line x1="217.29" y1="153.11" x2="63.68" y2="153.11" fill="none" stroke="#c0c1c3" stroke-linecap="round" stroke-miterlimit="10" stroke-width=".57"/>
    <line x1="217.29" y1="136.93" x2="63.68" y2="136.93" fill="none" stroke="#c0c1c3" stroke-linecap="round" stroke-miterlimit="10" stroke-width=".57"/>
    <line x1="217.29" y1="120.75" x2="63.68" y2="120.75" fill="none" stroke="#c0c1c3" stroke-linecap="round" stroke-miterlimit="10" stroke-width=".57"/>
    <line x1="217.29" y1="104.57" x2="63.68" y2="104.57" fill="none" stroke="#c0c1c3" stroke-linecap="round" stroke-miterlimit="10" stroke-width=".57"/>
    <line x1="217.29" y1="88.22" x2="63.68" y2="88.22" fill="none" stroke="#c0c1c3" stroke-linecap="round" stroke-miterlimit="10" stroke-width=".57"/>
    <line x1="431.17" y1="217.83" x2="277.56" y2="217.83" fill="none" stroke="#c0c1c3" stroke-linecap="round" stroke-miterlimit="10" stroke-width=".85"/>
    <line x1="431.17" y1="185.47" x2="277.56" y2="185.47" fill="none" stroke="#c0c1c3" stroke-linecap="round" stroke-miterlimit="10" stroke-width=".57"/>
    <line x1="431.17" y1="153.11" x2="277.56" y2="153.11" fill="none" stroke="#c0c1c3" stroke-linecap="round" stroke-miterlimit="10" stroke-width=".57"/>
    <line x1="431.17" y1="120.75" x2="277.56" y2="120.75" fill="none" stroke="#c0c1c3" stroke-linecap="round" stroke-miterlimit="10" stroke-width=".57"/>
    <line x1="431.17" y1="88.22" x2="277.56" y2="88.22" fill="none" stroke="#c0c1c3" stroke-linecap="round" stroke-miterlimit="10" stroke-width=".57"/>
  </g>
  <g id="Text">
    <text transform="translate(60.99 64.45)" font-family="Ubuntu-Regular, Ubuntu" font-size="5.32"><tspan x="0" y="0">This is a title</tspan></text>
    <text transform="translate(60.99 230.56)" fill="#58585a" font-family="Ubuntu-Regular, Ubuntu" font-size="5.32"><tspan x="0" y="0">2020</tspan></text>
    <text transform="translate(202.09 230.56)" fill="#58585a" font-family="Ubuntu-Regular, Ubuntu" font-size="5.32"><tspan x="0" y="0">2022</tspan></text>
    <text transform="translate(45.75 122.04)" fill="#58585a" font-family="Ubuntu-Regular, Ubuntu" font-size="10"><tspan x="0" y="0">60</tspan></text>
    <text transform="translate(45.75 105.57)" fill="#58585a" font-family="Ubuntu-Regular, Ubuntu" font-size="10"><tspan x="0" y="0">70</tspan></text>
    <text transform="translate(45.75 88.23)" fill="#58585a" font-family="Ubuntu-Regular, Ubuntu" font-size="10"><tspan x="0" y="0">80</tspan></text>
    <text transform="translate(45.75 138.94)" fill="#58585a" font-family="Ubuntu-Regular, Ubuntu" font-size="10"><tspan x="0" y="0">50</tspan></text>
    <text transform="translate(45.75 154.55)" fill="#58585a" font-family="Ubuntu-Regular, Ubuntu" font-size="10"><tspan x="0" y="0">40</tspan></text>
    <text transform="translate(45.75 170.15)" fill="#58585a" font-family="Ubuntu-Regular, Ubuntu" font-size="10"><tspan x="0" y="0">30</tspan></text>
    <text transform="translate(45.75 185.75)" fill="#58585a" font-family="Ubuntu-Regular, Ubuntu" font-size="10"><tspan x="0" y="0">20</tspan></text>
    <text transform="translate(45.75 201.35)" fill="#58585a" font-family="Ubuntu-Regular, Ubuntu" font-size="10"><tspan x="0" y="0">10</tspan></text>
    <text transform="translate(51.39 216.96)" fill="#58585a" font-family="Ubuntu-Regular, Ubuntu" font-size="10"><tspan x="0" y="0">0</tspan></text>
    <text transform="translate(261.23 52.25)" font-family="Ubuntu-Bold, Ubuntu" font-size="13"><tspan x="0" y="0">This is a title</tspan></text>
    <text transform="translate(60.99 75.55)" font-family="Ubuntu-Bold, Ubuntu" font-size="5.32"><tspan x="0" y="0">This is a subtitle</tspan></text>
    <text transform="translate(261.23 67.45)" font-family="Ubuntu-Regular, Ubuntu" font-size="10"><tspan x="0" y="0">This is a subtitle</tspan></text>
    <text transform="translate(276.6 230.56)" fill="#58585a" font-family="Ubuntu-Regular, Ubuntu" font-size="10"><tspan x="0" y="0">2020</tspan></text>
    <text transform="translate(408.61 230.56)" fill="#58585a" font-family="Ubuntu-Regular, Ubuntu" font-size="10"><tspan x="0" y="0">2022</tspan></text>
    <text transform="translate(260.2 124.33)" fill="#58585a" font-family="Ubuntu-Regular, Ubuntu" font-size="10"><tspan x="0" y="0">60</tspan></text>
    <text transform="translate(260.2 91.09)" fill="#58585a" font-family="Ubuntu-Regular, Ubuntu" font-size="10"><tspan x="0" y="0">80</tspan></text>
    <text transform="translate(260.2 156.55)" fill="#58585a" font-family="Ubuntu-Regular, Ubuntu" font-size="10"><tspan x="0" y="0">40</tspan></text>
    <text transform="translate(260.2 189.18)" fill="#58585a" font-family="Ubuntu-Regular, Ubuntu" font-size="10"><tspan x="0" y="0">20</tspan></text>
    <text transform="translate(265.84 218.96)" fill="#58585a" font-family="Ubuntu-Regular, Ubuntu" font-size="10"><tspan x="0" y="0">0</tspan></text>
    <path d="M64.94,217.02s4.77-.6,4.77-2.38,3.58-2.98,3.58-2.98c3.58-4.77,6.56-5.37,5.96-7.75-.6-2.38,1.19-8.94,1.19-10.73s3.58-5.37,3.58-7.15,1.79-5.96,2.38-7.75c.6-1.79,2.98-2.38,3.58-.6,.6,1.79,1.19,4.77,2.38,6.56,1.19,1.79,3.58,7.15,3.58,7.15,3.58-1.79,5.37-7.15,5.37-9.54s0-5.37,.6-6.56c.6-1.19,2.98-5.37,3.58-6.56,.6-1.19,2.38,.6,4.17-1.19s4.17-4.77,4.17-5.96,4.77-.6,4.77-3.58,3.58-6.56,4.17-6.56,3.58,5.96,3.58,5.96c0,0,1.79,6.56,2.38,7.15s2.38,6.56,2.38,6.56c2.98-3.58,4.77-6.56,4.77-6.56l1.19-5.37s4.77-5.96,4.17-7.75c-.6-1.79,1.79-4.77,1.79-5.96s2.38-3.58,2.38-5.37,1.19-2.98,1.79-5.37c.6-2.38,3.58-5.37,3.58-5.37l3.58-5.37,1.79-4.77,5.37-5.37s2.98-3.58,2.38-5.37c-.6-1.79,1.19-3.58,1.79-5.37,.6-1.79,2.98-3.58,4.77-1.79s4.77,.6,4.77,.6c0,0,7.15,.6,7.75,3.58,.6,2.98,2.38,7.15,2.38,7.15,0,0,1.79,4.17,1.79,5.37s.6,4.77,.6,4.77l.6,8.94s0,4.17,.6,6.56c.6,2.38,0,5.37,1.19,8.35s4.77,2.98,5.37,1.19c.6-1.79,1.79-4.77,1.79-4.77,0,0,3.58,.6,4.17-.6,.6-1.19,1.19-5.37,1.19-5.37l4.17-2.98,4.17-2.38,4.77,2.38" fill="none" stroke="#039" stroke-miterlimit="10"/>
    <path d="M277.61,217.02s4.77-.6,4.77-2.38,3.58-2.98,3.58-2.98c3.58-4.77,6.56-5.37,5.96-7.75-.6-2.38,1.19-8.94,1.19-10.73s3.58-5.37,3.58-7.15,1.79-5.96,2.38-7.75,2.98-2.38,3.58-.6c.6,1.79,1.19,4.77,2.38,6.56s3.58,7.15,3.58,7.15c3.58-1.79,5.37-7.15,5.37-9.54s0-5.37,.6-6.56,2.98-5.37,3.58-6.56c.6-1.19,2.38,.6,4.17-1.19,1.79-1.79,4.17-4.77,4.17-5.96s4.77-.6,4.77-3.58,3.58-6.56,4.17-6.56,3.58,5.96,3.58,5.96c0,0,1.79,6.56,2.38,7.15,.6,.6,2.38,6.56,2.38,6.56,2.98-3.58,4.77-6.56,4.77-6.56l1.19-5.37s4.77-5.96,4.17-7.75c-.6-1.79,1.79-4.77,1.79-5.96s2.38-3.58,2.38-5.37,1.19-2.98,1.79-5.37c.6-2.38,3.58-5.37,3.58-5.37l3.58-5.37,1.79-4.77,5.37-5.37s2.98-3.58,2.38-5.37,1.19-3.58,1.79-5.37,2.98-3.58,4.77-1.79c1.79,1.79,4.77,.6,4.77,.6,0,0,7.15,.6,7.75,3.58,.6,2.98,2.38,7.15,2.38,7.15,0,0,1.79,4.17,1.79,5.37s.6,4.77,.6,4.77l.6,8.94s0,4.17,.6,6.56c.6,2.38,0,5.37,1.19,8.35,1.19,2.98,4.77,2.98,5.37,1.19,.6-1.79,1.79-4.77,1.79-4.77,0,0,3.58,.6,4.17-.6,.6-1.19,1.19-5.37,1.19-5.37l4.17-2.98,4.17-2.38,4.77,2.38" fill="none" stroke="#039" stroke-miterlimit="10" stroke-width="2"/>
    <rect x="263.25" y="28.26" width="39.17" height=".94" fill="#039"/>
    <rect x="46.68" y="28.26" width="53.38" height=".94" fill="#039"/>
    <text transform="translate(263.43 25.85)" font-family="Ubuntu-Bold, Ubuntu" font-size="10"><tspan x="0" y="0">BE</tspan><tspan x="12.78" y="0" letter-spacing=".03em">T</tspan><tspan x="19.18" y="0">TER</tspan></text>
    <text transform="translate(45.86 25.85)" font-family="Ubuntu-Bold, Ubuntu" font-size="10"><tspan x="0" y="0">N</tspan><tspan x="7.56" y="0" letter-spacing="-.02em">O</tspan><tspan x="15.23" y="0" letter-spacing="0em">T IDEAL</tspan></text>
  </g>
</svg>