<?xml version="1.0" encoding="UTF-8"?>
<svg xmlns="http://www.w3.org/2000/svg" viewBox="0 0 471.19 250">
  <g id="Hintergrund">
    <rect x="-.53" y="-.88" width="471.19" height="250" fill="#f3f5fa"/>
  </g>
  <g id="Text">
    <rect x="260.78" y="29.1" width="38.53" height=".94" fill="#039"/>
    <rect x="30.46" y="29.1" width="52.44" height=".94" fill="#039"/>
    <text transform="translate(260.96 26.69)" font-family="Ubuntu-Bold, Ubuntu" font-size="10"><tspan x="0" y="0">BE</tspan><tspan x="12.78" y="0" letter-spacing=".03em">T</tspan><tspan x="19.18" y="0">TER</tspan></text>
    <text transform="translate(29.64 26.69)" font-family="Ubuntu-Bold, Ubuntu" font-size="10"><tspan x="0" y="0">N</tspan><tspan x="7.56" y="0" letter-spacing="-.02em">O</tspan><tspan x="15.23" y="0" letter-spacing="0em">T IDEAL</tspan></text>
    <g>
      <line x1="61.18" y1="69.69" x2="61.18" y2="200.6" fill="none" stroke="#c0c1c3" stroke-linecap="round" stroke-miterlimit="10" stroke-width=".57"/>
      <line x1="92.14" y1="69.69" x2="92.14" y2="200.6" fill="none" stroke="#c0c1c3" stroke-linecap="round" stroke-miterlimit="10" stroke-width=".57"/>
      <line x1="123.11" y1="69.69" x2="123.11" y2="200.6" fill="none" stroke="#c0c1c3" stroke-linecap="round" stroke-miterlimit="10" stroke-width=".57"/>
      <line x1="154.08" y1="69.69" x2="154.08" y2="200.6" fill="none" stroke="#c0c1c3" stroke-linecap="round" stroke-miterlimit="10" stroke-width=".57"/>
      <line x1="30.21" y1="69.69" x2="30.21" y2="200.6" fill="none" stroke="#c0c1c3" stroke-linecap="round" stroke-miterlimit="10" stroke-width=".85"/>
    </g>
    <rect x="30.21" y="175.2" width="123.87" height="11.74" fill="#039"/>
    <rect x="30.18" y="153.27" width="111.86" height="11.74" fill="#039"/>
    <rect x="30.13" y="87.46" width="93.24" height="11.74" fill="#039"/>
    <rect x="30.11" y="131.33" width="74.25" height="11.74" fill="#039"/>
    <rect x="30.21" y="109.4" width="61.93" height="11.74" fill="#039"/>
    <g>
      <line x1="291.66" y1="69.69" x2="291.66" y2="200.6" fill="none" stroke="#c0c1c3" stroke-linecap="round" stroke-miterlimit="10" stroke-width=".57"/>
      <line x1="322.63" y1="69.69" x2="322.63" y2="200.6" fill="none" stroke="#c0c1c3" stroke-linecap="round" stroke-miterlimit="10" stroke-width=".57"/>
      <line x1="353.59" y1="69.69" x2="353.59" y2="200.6" fill="none" stroke="#c0c1c3" stroke-linecap="round" stroke-miterlimit="10" stroke-width=".57"/>
      <line x1="384.56" y1="69.69" x2="384.56" y2="200.6" fill="none" stroke="#c0c1c3" stroke-linecap="round" stroke-miterlimit="10" stroke-width=".57"/>
      <line x1="260.69" y1="69.69" x2="260.69" y2="200.6" fill="none" stroke="#c0c1c3" stroke-linecap="round" stroke-miterlimit="10" stroke-width=".85"/>
    </g>
    <rect x="260.69" y="86.87" width="123.87" height="11.74" fill="#039"/>
    <rect x="260.66" y="108.98" width="111.86" height="11.74" fill="#039"/>
    <rect x="260.61" y="131.09" width="93.24" height="11.74" fill="#039"/>
    <rect x="260.59" y="153.21" width="74.25" height="11.74" fill="#039"/>
    <rect x="260.69" y="175.32" width="61.93" height="11.74" fill="#039"/>
  </g>
</svg>