<?xml version="1.0" encoding="UTF-8"?>
<svg id="Text" xmlns="http://www.w3.org/2000/svg" viewBox="0 0 600 250">
  <rect x="0" y="0" width="600" height="250" fill="#f3f5fa"/>
  <g>
    <line x1="209.44" y1="178.93" x2="394.83" y2="178.93" fill="none" stroke="#58585a" stroke-linecap="round" stroke-miterlimit="10" stroke-width=".57"/>
    <line x1="209.44" y1="140.16" x2="394.83" y2="140.16" fill="none" stroke="#58585a" stroke-linecap="round" stroke-miterlimit="10" stroke-width=".57"/>
    <line x1="209.44" y1="101.39" x2="394.83" y2="101.39" fill="none" stroke="#58585a" stroke-linecap="round" stroke-miterlimit="10" stroke-width=".57"/>
    <line x1="209.44" y1="62.62" x2="394.83" y2="62.62" fill="none" stroke="#58585a" stroke-linecap="round" stroke-miterlimit="10" stroke-width=".57"/>
    <line x1="209.44" y1="217.7" x2="394.83" y2="217.7" fill="none" stroke="#58585a" stroke-linecap="round" stroke-miterlimit="10" stroke-width=".57"/>
  </g>
  <rect x="227.26" y="62.62" width="26.11" height="155.09" fill="#6685c2"/>
  <rect x="285.95" y="82" width="26.11" height="135.7" fill="#039"/>
  <rect x="344.63" y="140.16" width="26.11" height="77.54" fill="#6685c2"/>
  <path d="M321.76,75.26h-20.69l-2.07,4.88-1.92-4.88h-20.84c-.93,0-1.68-.75-1.68-1.68v-22.19c0-.93,.75-1.68,1.68-1.68h45.52c.93,0,1.68,.75,1.68,1.68v22.19c0,.93-.75,1.68-1.68,1.68Z" fill="#fff" stroke="#039" stroke-linejoin="round" stroke-width=".71"/>
  <text transform="translate(278.56 64.8)" fill="#039" font-family="Ubuntu-Regular, Ubuntu" font-size="9.04"><tspan x="0" y="0" letter-spacing="-.02em">C</tspan><tspan x="5.47" y="0">ount</tspan><tspan x="24.81" y="0" letter-spacing=".02em">r</tspan><tspan x="28.49" y="0">y B</tspan></text>
  <rect x="209.44" y="11.93" width="114" height="25.54" rx="2.83" ry="2.83" fill="#fff"/>
  <g>
    <text transform="translate(216.2 31.35)" fill="#039" font-family="Ubuntu-Regular, Ubuntu" font-size="9.04"><tspan x="0" y="0">3 selec</tspan><tspan x="28" y="0" letter-spacing="-.01em">t</tspan><tspan x="31.54" y="0">ed</tspan></text>
    <text transform="translate(216.2 21.83)" fill="#039" font-family="Ubuntu-Bold, Ubuntu" font-size="6.5"><tspan x="0" y="0">Fil</tspan><tspan x="7.66" y="0" letter-spacing="-.02em">t</tspan><tspan x="10.42" y="0">er</tspan></text>
  </g>
  <path d="M311.04,22.46c-.18-.25-.07-.46,.24-.46h6.72c.31,0,.41,.2,.23,.46l-3.34,4.49c-.19,.25-.49,.25-.67,0l-3.18-4.48Z" fill="#039"/>
  <g>
    <path d="M305.22,118.06c0,.56-.72,.76-1.02,.3l-2.87-3.62c-.29-.36-.69-.6-1.1-.68-.78-.14-1.56,.32-1.7,1.12-.08,.45,0,.96,.21,1.46,.77,1.91,1.84,3.83,2.92,5.78,.8,1.43,1.6,2.89,2.33,4.39,.9,1.87,2.46,3.19,4.3,3.99,1.44,.62,3.05,.92,4.65,.89,1.6-.03,3.19-.38,4.59-1.05,1.75-.84,3.19-2.18,3.98-4.02,.39-.9,.73-1.82,.95-2.82,.28-1.31,.22-2.09,.22-3.4v-7.71c0-.48-.2-.93-.52-1.25-.32-.32-.76-.52-1.25-.52s-.93,.2-1.25,.52c-.32,.32-.52,.76-.52,1.25v3.04c0,.31-.25,.56-.56,.56s-.56-.25-.56-.56v-4.99c0-.48-.2-.93-.52-1.25-.32-.32-.76-.52-1.25-.52s-.93,.2-1.25,.52c-.32,.32-.52,.76-.52,1.25v3.25c0,.31-.25,.56-.56,.56s-.56-.25-.56-.56v-5.71c0-.48-.2-.93-.52-1.25-.32-.32-.76-.52-1.25-.52s-.93,.2-1.25,.52c-.32,.32-.52,.76-.52,1.25v4.27c0,.69-1.11,.77-1.11,0v-12.64c0-.48-.2-.93-.52-1.25-.69-.69-1.8-.69-2.49,0-.32,.32-.52,.76-.52,1.25v18.15h0Z" fill="#fff"/>
    <path d="M304.11,116.46v-16.56c0-.79,.32-1.51,.84-2.03,1.12-1.12,2.94-1.12,4.06,0,.52,.52,.84,1.24,.84,2.03v6.1c.49-.38,1.1-.61,1.76-.61,.79,0,1.51,.32,2.03,.84,.52,.52,.84,1.24,.84,2.03v.19c.49-.38,1.1-.61,1.76-.61,.79,0,1.51,.32,2.03,.84,.45,.45,.76,1.05,.83,1.72,.49-.39,1.11-.62,1.78-.62,.79,0,1.51,.32,2.03,.84,.52,.52,.84,1.24,.84,2.03v7.6c0,1.42,.06,2.31-.25,3.74-.24,1.09-.6,2.07-1.01,3.03-.9,2.1-2.55,3.63-4.53,4.58-1.54,.74-3.29,1.13-5.05,1.16-1.76,.03-3.52-.29-5.11-.97-2.08-.89-3.84-2.4-4.86-4.53-.7-1.46-1.5-2.91-2.3-4.33-1.1-1.99-2.19-3.94-2.98-5.9-.27-.68-.39-1.4-.27-2.07,.26-1.41,1.61-2.26,2.99-2.01,.67,.12,1.31,.5,1.77,1.08l1.91,2.41h0Zm1.11,1.6c0,.56-.72,.76-1.02,.3l-2.87-3.62c-.29-.36-.69-.6-1.1-.68-.78-.14-1.56,.32-1.7,1.12-.08,.45,0,.96,.21,1.46,.77,1.91,1.84,3.83,2.92,5.78,.8,1.43,1.6,2.89,2.33,4.39,.9,1.87,2.46,3.19,4.3,3.99,1.44,.62,3.05,.92,4.65,.89,1.6-.03,3.19-.38,4.59-1.05,1.75-.84,3.19-2.18,3.98-4.02,.39-.9,.73-1.82,.95-2.82,.28-1.31,.22-2.09,.22-3.4v-7.71c0-.48-.2-.93-.52-1.25-.32-.32-.76-.52-1.25-.52s-.93,.2-1.25,.52c-.32,.32-.52,.76-.52,1.25v3.04c0,.31-.25,.56-.56,.56s-.56-.25-.56-.56v-4.99c0-.48-.2-.93-.52-1.25-.32-.32-.76-.52-1.25-.52s-.93,.2-1.25,.52c-.32,.32-.52,.76-.52,1.25v3.25c0,.31-.25,.56-.56,.56s-.56-.25-.56-.56v-5.71c0-.48-.2-.93-.52-1.25-.32-.32-.76-.52-1.25-.52s-.93,.2-1.25,.52c-.32,.32-.52,.76-.52,1.25v4.27c0,.69-1.11,.77-1.11,0v-12.64c0-.48-.2-.93-.52-1.25-.69-.69-1.8-.69-2.49,0-.32,.32-.52,.76-.52,1.25v18.15h0Z" fill="#039"/>
  </g>
</svg>