<?xml version="1.0" encoding="UTF-8"?>
<svg xmlns="http://www.w3.org/2000/svg" viewBox="0 0 471.19 250">
  <g id="Hintergrund">
    <rect x="-.39" y="-.88" width="471.19" height="250" fill="#f3f5fa"/>
  </g>
  <g id="Text">
    <rect x="333.17" y="28.48" width="39.11" height=".94" fill="#039"/>
    <rect x="78.77" y="28.48" width="53.1" height=".94" fill="#039"/>
    <text transform="translate(333.35 26.07)" font-family="Ubuntu-Bold, Ubuntu" font-size="10"><tspan x="0" y="0">BE</tspan><tspan x="12.78" y="0" letter-spacing=".03em">T</tspan><tspan x="19.18" y="0">TER</tspan></text>
    <text transform="translate(77.95 26.07)" font-family="Ubuntu-Bold, Ubuntu" font-size="10"><tspan x="0" y="0">N</tspan><tspan x="7.56" y="0" letter-spacing="-.02em">O</tspan><tspan x="15.23" y="0" letter-spacing="0em">T IDEAL</tspan></text>
    <text transform="translate(75.15 217.66)" font-family="Ubuntu-Regular, Ubuntu" font-size="10"><tspan x="0" y="0" letter-spacing="-.02em">W</tspan><tspan x="9.07" y="0" letter-spacing="0em">omen</tspan></text>
    <text transform="translate(135.54 217.66)" font-family="Ubuntu-Regular, Ubuntu" font-size="10"><tspan x="0" y="0">Men</tspan></text>
    <text transform="translate(316.41 217.66)" font-family="Ubuntu-Regular, Ubuntu" font-size="10"><tspan x="0" y="0" letter-spacing="-.02em">W</tspan><tspan x="9.07" y="0" letter-spacing="0em">omen</tspan></text>
    <text transform="translate(367.12 217.66)" font-family="Ubuntu-Regular, Ubuntu" font-size="10"><tspan x="0" y="0">Men</tspan></text>
    <g>
      <circle cx="145.56" cy="146.07" r="4.76" fill="#039"/>
      <path d="M145.45,203.3h3.96s.73-17.88,.86-20.04c.12-2.04,3.78-1.59,3.78-1.59,1.5-14.68,1.27-18.92,1.19-23.1-.08-4.3-9.16-4.53-9.16-4.53l-.9,.03s-9.49,.21-9.57,4.51-.31,8.42,1.19,23.1c0,0,3.65-.45,3.78,1.59,.13,2.16,.86,20.04,.86,20.04h4.01Z" fill="#039"/>
    </g>
    <g>
      <circle cx="92.61" cy="92.85" r="9.21" fill="#039"/>
      <path d="M92.56,203.2h6.4s0-30.02,0-30.02h14.71s-9.2-39.52-9.2-39.52c0,0-1.2-2.5,2.5-14.41,3.7-11.91-4.1-11.21-4.1-11.21h-9.91s.32,0,.32,0h-9.91s-7.8-.7-4.1,11.21c3.7,11.91,2.5,14.41,2.5,14.41l-9.2,39.52h14.71v30.02h5.28Z" fill="#039"/>
    </g>
    <rect x="318.03" y="82.1" width="31.67" height="120.94" fill="#039"/>
    <text transform="translate(324.32 74.62)" font-family="Ubuntu-Regular, Ubuntu" font-size="10"><tspan x="0" y="0">60%</tspan></text>
    <text transform="translate(368 135.53)" font-family="Ubuntu-Regular, Ubuntu" font-size="10"><tspan x="0" y="0">30%</tspan></text>
    <text transform="translate(84.55 74.62)" font-family="Ubuntu-Regular, Ubuntu" font-size="10"><tspan x="0" y="0">60%</tspan></text>
    <text transform="translate(137.79 136.1)" font-family="Ubuntu-Regular, Ubuntu" font-size="10"><tspan x="0" y="0">30%</tspan></text>
    <rect x="361.3" y="141.04" width="31.67" height="62.01" fill="#039"/>
  </g>
</svg>