<?xml version="1.0" encoding="UTF-8"?>
<svg id="Graphic" xmlns="http://www.w3.org/2000/svg" viewBox="0 0 600 250">
  <rect y="-.09" width="600" height="250" fill="rgba(255, 247, 217, .4)"/>
  <rect x="258.3" y="35.33" width="96.1" height="187.62" rx="14.17" ry="14.17" fill="#fff2bc"/>
  <rect x="252.82" y="29.4" width="96.1" height="187.62" rx="10.1" ry="10.1" fill="#fff" stroke="#ffd940" stroke-miterlimit="10" stroke-width=".71"/>
  <rect x="259.91" y="38.92" width="82.75" height="171.1" rx="2.83" ry="2.83" fill="#ffd940"/>
  <path d="M310.99,60.86c2.54,2.54,4.11,6.05,4.11,9.93,0,7.76-6.29,14.05-14.05,14.05s-14.05-6.29-14.05-14.05,6.29-14.05,14.05-14.05v14.05l9.93-9.93Z" fill="#fff"/>
  <line x1="271.42" y1="102.99" x2="330.43" y2="102.99" fill="none" stroke="#fff" stroke-linecap="round" stroke-miterlimit="10" stroke-width="2.13"/>
  <line x1="271.42" y1="111.43" x2="325.13" y2="111.43" fill="none" stroke="#fff" stroke-linecap="round" stroke-miterlimit="10" stroke-width="2.13"/>
  <line x1="271.42" y1="119.88" x2="327.45" y2="119.88" fill="none" stroke="#fff" stroke-linecap="round" stroke-miterlimit="10" stroke-width="2.13"/>
  <line x1="271.42" y1="128.53" x2="325.46" y2="128.53" fill="none" stroke="#fff" stroke-linecap="round" stroke-miterlimit="10" stroke-width="2.13"/>
  <line x1="271.42" y1="136.97" x2="331.76" y2="136.97" fill="none" stroke="#fff" stroke-linecap="round" stroke-miterlimit="10" stroke-width="2.13"/>
  <line x1="271.42" y1="145.41" x2="327.78" y2="145.41" fill="none" stroke="#fff" stroke-linecap="round" stroke-miterlimit="10" stroke-width="2.13"/>
  <line x1="271.42" y1="163.67" x2="322.51" y2="163.67" fill="none" stroke="#fff" stroke-linecap="round" stroke-miterlimit="10" stroke-width="2.13"/>
  <line x1="271.42" y1="172.32" x2="328.98" y2="172.32" fill="none" stroke="#fff" stroke-linecap="round" stroke-miterlimit="10" stroke-width="2.13"/>
  <line x1="271.42" y1="180.76" x2="323.5" y2="180.76" fill="none" stroke="#fff" stroke-linecap="round" stroke-miterlimit="10" stroke-width="2.13"/>
  <line x1="271.42" y1="190.07" x2="327.19" y2="190.07" fill="none" stroke="#fff" stroke-linecap="round" stroke-miterlimit="10" stroke-width="2.13"/>
  <path d="M310.99,80.73c-2.54,2.54-6.05,4.11-9.93,4.11-7.76,0-14.05-6.29-14.05-14.05s6.29-14.05,14.05-14.05,14.05,6.29,14.05,14.05h-14.05l9.93,9.93Z" fill="#fff" opacity=".5"/>
</svg>