<?xml version="1.0" encoding="UTF-8"?>
<svg xmlns="http://www.w3.org/2000/svg" viewBox="0 0 513.63 250">
  <g id="Hintergrund">
    <rect x="0" y="0" width="513.63" height="250" fill="#fef8f9"/>
  </g>
  <g id="Text">
    <g>
      <line x1="12.91" y1="154.65" x2="205.79" y2="154.65" fill="none" stroke="#f7a7b6" stroke-linecap="round" stroke-width=".99"/>
      <line x1="12.91" y1="176.77" x2="205.79" y2="176.77" fill="none" stroke="#f7a7b6" stroke-linecap="round" stroke-width=".99"/>
      <line x1="12.91" y1="110.42" x2="205.79" y2="110.42" fill="none" stroke="#f7a7b6" stroke-linecap="round" stroke-width=".99"/>
      <line x1="12.91" y1="132.54" x2="205.79" y2="132.54" fill="none" stroke="#f7a7b6" stroke-linecap="round" stroke-width=".99"/>
      <line x1="69.4" y1="95.01" x2="69.4" y2="190.84" fill="none" stroke="#f7a7b6" stroke-linecap="round" stroke-width=".99"/>
      <line x1="115.56" y1="95.01" x2="115.56" y2="190.84" fill="none" stroke="#f7a7b6" stroke-linecap="round" stroke-width=".99"/>
      <line x1="167.25" y1="95.01" x2="167.25" y2="190.84" fill="none" stroke="#f7a7b6" stroke-linecap="round" stroke-width=".99"/>
      <line x1="235.92" y1="154.65" x2="500.72" y2="154.65" fill="none" stroke="#f7a7b6" stroke-linecap="round" stroke-width=".99"/>
      <line x1="235.92" y1="176.77" x2="500.72" y2="176.77" fill="none" stroke="#f7a7b6" stroke-linecap="round" stroke-width=".99"/>
      <line x1="235.92" y1="110.42" x2="500.72" y2="110.42" fill="none" stroke="#f7a7b6" stroke-linecap="round" stroke-width=".99"/>
      <line x1="235.92" y1="132.54" x2="500.72" y2="132.54" fill="none" stroke="#f7a7b6" stroke-linecap="round" stroke-width=".99"/>
      <line x1="292.41" y1="95.01" x2="292.41" y2="190.84" fill="none" stroke="#f7a7b6" stroke-linecap="round" stroke-width=".99"/>
      <line x1="357.91" y1="95.01" x2="357.91" y2="190.84" fill="none" stroke="#f7a7b6" stroke-linecap="round" stroke-width=".99"/>
      <line x1="443.44" y1="95.01" x2="443.44" y2="190.84" fill="none" stroke="#f7a7b6" stroke-linecap="round" stroke-width=".99"/>
      <text transform="translate(20.75 101.16)" font-family="Ubuntu-Regular, Ubuntu" font-size="10"><tspan x="0" y="0">goods</tspan></text>
      <text transform="translate(155.15 85.89)" font-family="Ubuntu-Regular, Ubuntu" font-size="10"><tspan x="0" y="0">value</tspan></text>
      <text transform="translate(78.46 101.16)" font-family="Ubuntu-Regular, Ubuntu" font-size="10"><tspan x="0" y="0">%, amt</tspan></text>
      <text transform="translate(127.32 101.16)" font-family="Ubuntu-Regular, Ubuntu" font-size="10"><tspan x="0" y="0">in euro</tspan></text>
      <text transform="translate(179.7 101.16)" font-family="Ubuntu-Regular, Ubuntu" font-size="10"><tspan x="0" y="0">in $</tspan></text>
      <text transform="translate(20.75 124.07)" font-family="Ubuntu-Regular, Ubuntu" font-size="10"><tspan x="0" y="0">Insurance</tspan></text>
      <text transform="translate(75.59 124.07)" font-family="Ubuntu-Regular, Ubuntu" font-size="10"><tspan x="0" y="0">30,3</tspan></text>
      <text transform="translate(144.5 124.07)" font-family="Ubuntu-Regular, Ubuntu" font-size="10"><tspan x="0" y="0">3</tspan></text>
      <text transform="translate(144.5 145.73)" font-family="Ubuntu-Regular, Ubuntu" font-size="10"><tspan x="0" y="0">0</tspan></text>
      <text transform="translate(144.5 167.68)" font-family="Ubuntu-Regular, Ubuntu" font-size="10"><tspan x="0" y="0">1</tspan></text>
      <text transform="translate(183.52 124.07)" font-family="Ubuntu-Regular, Ubuntu" font-size="10"><tspan x="0" y="0">4</tspan></text>
      <text transform="translate(183.52 145.73)" font-family="Ubuntu-Regular, Ubuntu" font-size="10"><tspan x="0" y="0">0</tspan></text>
      <text transform="translate(183.52 167.68)" font-family="Ubuntu-Regular, Ubuntu" font-size="10"><tspan x="0" y="0">1,5</tspan></text>
      <text transform="translate(75.59 167.97)" font-family="Ubuntu-Regular, Ubuntu" font-size="10"><tspan x="0" y="0">40,5</tspan></text>
      <text transform="translate(91.36 147.92)" font-family="Ubuntu-Regular, Ubuntu" font-size="10"><tspan x="0" y="0">0</tspan></text>
      <text transform="translate(20.75 146.97)" font-family="Ubuntu-Regular, Ubuntu" font-size="10"><tspan x="0" y="0" letter-spacing="-.04em">T</tspan><tspan x="5.25" y="0">ransport</tspan></text>
      <text transform="translate(20.75 167.97)" font-family="Ubuntu-Regular, Ubuntu" font-size="10"><tspan x="0" y="0" letter-spacing="-.05em">T</tspan><tspan x="5.1" y="0">ourism</tspan></text>
      <text transform="translate(243.77 101.16)" font-family="Ubuntu-Regular, Ubuntu" font-size="10"><tspan x="0" y="0">goods</tspan></text>
      <text transform="translate(298.06 101.16)" font-family="Ubuntu-Regular, Ubuntu" font-size="10"><tspan x="0" y="0">percentage</tspan></text>
      <text transform="translate(364.93 101.16)" font-family="Ubuntu-Regular, Ubuntu" font-size="10"><tspan x="0" y="0">value in millions</tspan></text>
      <text transform="translate(451.51 101.16)" font-family="Ubuntu-Regular, Ubuntu" font-size="10"><tspan x="0" y="0">curren</tspan><tspan x="29.44" y="0" letter-spacing=".01em">c</tspan><tspan x="34.2" y="0">y</tspan></text>
      <text transform="translate(243.77 124.07)" font-family="Ubuntu-Regular, Ubuntu" font-size="10"><tspan x="0" y="0">Insurance</tspan></text>
      <text transform="translate(333.85 124.07)" font-family="Ubuntu-Regular, Ubuntu" font-size="10"><tspan x="0" y="0">30,3</tspan></text>
      <text transform="translate(429.24 124.07)" font-family="Ubuntu-Regular, Ubuntu" font-size="10"><tspan x="0" y="0">3</tspan></text>
      <text transform="translate(429.24 168.06)" font-family="Ubuntu-Regular, Ubuntu" font-size="10"><tspan x="0" y="0">1</tspan></text>
      <text transform="translate(451.51 124.07)" font-family="Ubuntu-Regular, Ubuntu" font-size="10"><tspan x="0" y="0" letter-spacing="-.02em">E</tspan><tspan x="5.52" y="0">uro</tspan></text>
      <text transform="translate(451.51 147.92)" font-family="Ubuntu-Regular, Ubuntu" font-size="10"><tspan x="0" y="0" letter-spacing="-.02em">E</tspan><tspan x="5.52" y="0">uro</tspan></text>
      <text transform="translate(451.51 168.06)" font-family="Ubuntu-Regular, Ubuntu" font-size="10"><tspan x="0" y="0" letter-spacing="-.02em">E</tspan><tspan x="5.52" y="0">uro</tspan></text>
      <text transform="translate(333.85 168.06)" font-family="Ubuntu-Regular, Ubuntu" font-size="10"><tspan x="0" y="0">40,5</tspan></text>
      <text transform="translate(299.81 147.92)" font-family="Ubuntu-Regular, Ubuntu" font-size="10"><tspan x="0" y="0">null</tspan></text>
      <text transform="translate(363.8 147.92)" font-family="Ubuntu-Regular, Ubuntu" font-size="10"><tspan x="0" y="0">null</tspan></text>
      <text transform="translate(243.77 147.92)" font-family="Ubuntu-Regular, Ubuntu" font-size="10"><tspan x="0" y="0" letter-spacing="-.04em">T</tspan><tspan x="5.25" y="0">ransport</tspan></text>
      <text transform="translate(243.77 168.06)" font-family="Ubuntu-Regular, Ubuntu" font-size="10"><tspan x="0" y="0" letter-spacing="-.05em">T</tspan><tspan x="5.1" y="0">ourism</tspan></text>
      <g>
        <rect x="237.13" y="28.6" width="37.25" height=".94" fill="#f7a7b6"/>
        <text transform="translate(235.92 26.19)" font-family="Ubuntu-Bold, Ubuntu" font-size="10"><tspan x="0" y="0">BE</tspan><tspan x="12.78" y="0" letter-spacing=".03em">T</tspan><tspan x="19.18" y="0">TER</tspan></text>
      </g>
      <g>
        <rect x="13.73" y="28.6" width="52.6" height=".94" fill="#f7a7b6"/>
        <text transform="translate(12.91 26.19)" font-family="Ubuntu-Bold, Ubuntu" font-size="10"><tspan x="0" y="0">N</tspan><tspan x="7.56" y="0" letter-spacing="-.02em">O</tspan><tspan x="15.23" y="0" letter-spacing="0em">T IDEAL</tspan></text>
      </g>
    </g>
  </g>
</svg>