<?xml version="1.0" encoding="UTF-8"?>
<svg id="Text" xmlns="http://www.w3.org/2000/svg" viewBox="0 0 600 250">
  <rect x="0" y="0" width="600" height="250" fill="#fff9f0"/>
  <line x1="405.47" y1="188.02" x2="194.53" y2="188.02" fill="none" stroke="#58585a" stroke-linecap="round" stroke-miterlimit="10" stroke-width=".57"/>
  <line x1="405.47" y1="108.17" x2="194.53" y2="108.17" fill="none" stroke="#58585a" stroke-linecap="round" stroke-miterlimit="10" stroke-width=".57"/>
  <line x1="405.47" y1="148.09" x2="194.53" y2="148.09" fill="none" stroke="#58585a" stroke-linecap="round" stroke-miterlimit="10" stroke-width=".57"/>
  <line x1="405.47" y1="68.25" x2="194.53" y2="68.25" fill="none" stroke="#58585a" stroke-linecap="round" stroke-miterlimit="10" stroke-width=".57"/>
  <line x1="405.47" y1="28.13" x2="194.53" y2="28.13" fill="none" stroke="#58585a" stroke-linecap="round" stroke-miterlimit="10" stroke-width=".57"/>
  <path d="M196.08,188.32s6.1-.46,6.1-2.77,4.58-3.86,4.58-3.86c4.58-6.17,8.39-4.67,7.63-7.76s1.53-13.83,1.53-16.15,4.58-6.94,4.58-9.25,2.29-7.71,3.05-10.02,3.81-3.08,4.58-.77,1.53,6.17,3.05,8.48,4.58,9.25,4.58,9.25c4.58-2.31,6.86-9.25,6.86-12.34s0-6.94,.76-8.48c.76-1.54,3.81-6.94,4.58-8.48s3.05,.77,5.34-1.54c2.29-2.31,5.34-6.17,5.34-7.71s6.1-.77,6.1-4.63,4.58-8.48,5.34-8.48,4.58,7.71,4.58,7.71c0,0,2.29,8.48,3.05,9.25s3.05,8.48,3.05,8.48c3.81-4.63,6.1-8.48,6.1-8.48l1.53-6.94s6.1-7.71,5.34-10.02c-.76-2.31,2.29-6.17,2.29-7.71s3.05-4.63,3.05-6.94,1.53-3.86,2.29-6.94,4.58-6.94,4.58-6.94l4.58-6.94,2.29-6.17,6.86-6.94s3.81-4.63,3.05-6.94c-.76-2.31,1.53-4.63,2.29-6.94s3.81-4.63,6.1-2.31,6.1,.77,6.1,.77c0,0,9.15,.77,9.91,4.63,.76,3.86,3.05,9.25,3.05,9.25,0,0,2.29,5.4,2.29,6.94s.76,6.17,.76,6.17l.76,11.57s0,5.4,.76,8.48,0,6.94,1.53,10.8,6.1,3.86,6.86,1.54,2.29-6.17,2.29-6.17c0,0,4.58,.77,5.34-.77,.76-1.54,1.53-6.94,1.53-6.94l5.34-3.86,5.34-3.08,6.1,3.08v106.87H196.08Z" fill="#febe61"/>
  <g>
    <rect x="193.78" y="198.92" width="79.99" height="27.74" rx="2.83" ry="2.83" fill="#fff"/>
    <g>
      <circle cx="211.35" cy="212.79" r="9.82" fill="#ffe5c1"/>
      <g>
        <polyline points="208.85 209.95 206.06 212.84 208.85 215.62" fill="none" stroke="#feaa2f" stroke-linecap="round" stroke-miterlimit="10"/>
        <polyline points="213.85 209.95 216.63 212.84 213.85 215.62" fill="none" stroke="#feaa2f" stroke-linecap="round" stroke-miterlimit="10"/>
        <line x1="210.62" y1="217.02" x2="212.26" y2="208.55" fill="none" stroke="#feaa2f" stroke-linecap="round" stroke-miterlimit="10"/>
      </g>
      <text transform="translate(225.08 216.35)" fill="#feaa2f" font-family="Ubuntu-Regular, Ubuntu" font-size="10"><tspan x="0" y="0">&lt;iframe&gt;</tspan></text>
    </g>
  </g>
  <g>
    <rect x="280.54" y="198.92" width="124.93" height="27.74" rx="2.83" ry="2.83" fill="#fff"/>
    <g>
      <text transform="translate(313.04 216.35)" fill="#feaa2f" font-family="Ubuntu-Regular, Ubuntu" font-size="10"><tspan x="0" y="0">Share visualization</tspan></text>
      <g>
        <circle cx="298.44" cy="212.79" r="9.82" fill="#ffe5c1"/>
        <path d="M304.53,212.59l-5.6-5.2v3.13c-1.38,0-6.48,.51-6.57,7.67,0,0,1.77-3.88,6.57-3.67v3.44l5.6-5.37Z" fill="#feaa2f"/>
      </g>
    </g>
  </g>
</svg>