<?xml version="1.0" encoding="UTF-8"?>
<svg xmlns="http://www.w3.org/2000/svg" viewBox="0 0 471.19 250">
  <g id="Hintergrund">
    <rect y="-.88" width="471.19" height="250" fill="#f3f5fa"/>
  </g>
  <g id="Text">
    <g>
      <g>
        <text transform="translate(265.08 208.87)" fill="#58585a" font-family="Ubuntu-Regular, Ubuntu" font-size="10"><tspan x="0" y="0">0</tspan></text>
        <text transform="translate(259.44 175.39)" fill="#58585a" font-family="Ubuntu-Regular, Ubuntu" font-size="10"><tspan x="0" y="0">20</tspan></text>
        <text transform="translate(259.44 141.91)" fill="#58585a" font-family="Ubuntu-Regular, Ubuntu" font-size="10"><tspan x="0" y="0">40</tspan></text>
        <text transform="translate(259.44 108.43)" fill="#58585a" font-family="Ubuntu-Regular, Ubuntu" font-size="10"><tspan x="0" y="0">60</tspan></text>
        <text transform="translate(259.44 74.95)" fill="#58585a" font-family="Ubuntu-Regular, Ubuntu" font-size="10"><tspan x="0" y="0">80</tspan></text>
      </g>
      <g>
        <line x1="273.16" y1="172.65" x2="414.69" y2="172.65" fill="none" stroke="#c0c1c3" stroke-linecap="round" stroke-miterlimit="10" stroke-width=".57"/>
        <line x1="273.16" y1="139.17" x2="414.69" y2="139.17" fill="none" stroke="#c0c1c3" stroke-linecap="round" stroke-miterlimit="10" stroke-width=".57"/>
        <line x1="273.16" y1="105.69" x2="414.69" y2="105.69" fill="none" stroke="#c0c1c3" stroke-linecap="round" stroke-miterlimit="10" stroke-width=".57"/>
        <line x1="273.16" y1="72.2" x2="414.69" y2="72.2" fill="none" stroke="#c0c1c3" stroke-linecap="round" stroke-miterlimit="10" stroke-width=".57"/>
        <line x1="273.16" y1="206.13" x2="414.69" y2="206.13" fill="none" stroke="#c0c1c3" stroke-linecap="round" stroke-miterlimit="10" stroke-width=".85"/>
      </g>
    </g>
    <g>
      <rect x="288.55" y="72.2" width="22.55" height="133.92" fill="#039"/>
      <rect x="330.11" y="88.94" width="22.55" height="117.18" fill="#039"/>
      <rect x="370.42" y="139.17" width="22.55" height="66.96" fill="#039"/>
    </g>
    <text transform="translate(30.68 206.75)" fill="#58585a" font-family="Ubuntu-Regular, Ubuntu" font-size="10"><tspan x="0" y="0">20</tspan></text>
    <text transform="translate(30.68 141.38)" fill="#58585a" font-family="Ubuntu-Regular, Ubuntu" font-size="10"><tspan x="0" y="0">50</tspan></text>
    <text transform="translate(30.68 86)" fill="#58585a" font-family="Ubuntu-Regular, Ubuntu" font-size="10"><tspan x="0" y="0">75</tspan></text>
    <line x1="44.4" y1="206.27" x2="185.93" y2="206.27" fill="none" stroke="#c0c1c3" stroke-linecap="round" stroke-miterlimit="10" stroke-width=".57"/>
    <line x1="44.4" y1="139.31" x2="185.93" y2="139.31" fill="none" stroke="#c0c1c3" stroke-linecap="round" stroke-miterlimit="10" stroke-width=".57"/>
    <line x1="44.4" y1="83.5" x2="185.93" y2="83.5" fill="none" stroke="#c0c1c3" stroke-linecap="round" stroke-miterlimit="10" stroke-width=".57"/>
    <g>
      <rect x="59.79" y="72.34" width="22.55" height="134.09" fill="#039"/>
      <rect x="101.35" y="94.66" width="22.55" height="111.77" fill="#039"/>
      <rect x="141.66" y="161.63" width="22.55" height="44.81" fill="#039"/>
    </g>
    <rect x="261.1" y="27.64" width="38.7" height=".94" fill="#039"/>
    <rect x="32.04" y="27.64" width="52.88" height=".94" fill="#039"/>
    <text transform="translate(261.28 25.23)" font-family="Ubuntu-Bold, Ubuntu" font-size="10"><tspan x="0" y="0">BE</tspan><tspan x="12.78" y="0" letter-spacing=".03em">T</tspan><tspan x="19.18" y="0">TER</tspan></text>
    <text transform="translate(31.21 25.23)" font-family="Ubuntu-Bold, Ubuntu" font-size="10"><tspan x="0" y="0">N</tspan><tspan x="7.56" y="0" letter-spacing="-.02em">O</tspan><tspan x="15.23" y="0" letter-spacing="0em">T IDEAL</tspan></text>
  </g>
</svg>