<?xml version="1.0" encoding="UTF-8"?>
<svg xmlns="http://www.w3.org/2000/svg" viewBox="0 0 471.19 250">
  <g id="Hintergrund">
    <rect y="0" width="472.75" height="250" fill="#f3f5fa"/>
  </g>
  <g id="Text">
    <g>
      <text transform="translate(73.59 114.03)" font-family="Ubuntu-Regular, Ubuntu" font-size="10"><tspan x="0" y="0" letter-spacing="-.03em">P</tspan><tspan x="5.76" y="0">eople in the </tspan><tspan x="61.98" y="0" letter-spacing="-.02em">E</tspan><tspan x="67.47" y="0">U in the age 18 - 40</tspan></text>
      <text transform="translate(73.59 138.63)" font-family="Ubuntu-Regular, Ubuntu" font-size="10"><tspan x="0" y="0" letter-spacing="-.03em">P</tspan><tspan x="5.76" y="0">eople in the </tspan><tspan x="61.98" y="0" letter-spacing="-.02em">E</tspan><tspan x="67.47" y="0">U in the age 41 - 80</tspan></text>
      <circle cx="58.62" cy="110.56" r="6.56" fill="#039"/>
      <circle cx="58.62" cy="134.78" r="6.56" fill="#6685c2"/>
      <text transform="translate(73.59 162.16)" font-family="Ubuntu-Regular, Ubuntu" font-size="10"><tspan x="0" y="0" letter-spacing="-.03em">P</tspan><tspan x="5.76" y="0">eople in the </tspan><tspan x="61.98" y="0" letter-spacing="-.02em">E</tspan><tspan x="67.47" y="0">U in the age older than 80</tspan></text>
      <circle cx="58.62" cy="158.69" r="6.56" fill="#b2c2e0"/>
      <text transform="translate(334.8 114.03)" font-family="Ubuntu-Regular, Ubuntu" font-size="10"><tspan x="0" y="0">18 – 40</tspan></text>
      <text transform="translate(315.36 90.89)" font-family="Ubuntu-Regular, Ubuntu" font-size="10"><tspan x="0" y="0" letter-spacing="-.02em">E</tspan><tspan x="5.49" y="0">U-residents in the age...</tspan></text>
      <text transform="translate(334.8 138.63)" font-family="Ubuntu-Regular, Ubuntu" font-size="10"><tspan x="0" y="0">41 – 80</tspan></text>
      <circle cx="319.83" cy="110.56" r="6.56" fill="#039"/>
      <circle cx="319.83" cy="134.78" r="6.56" fill="#6685c2"/>
      <text transform="translate(334.8 162.16)" font-family="Ubuntu-Regular, Ubuntu" font-size="10"><tspan x="0" y="0">older than 80</tspan></text>
      <circle cx="319.83" cy="158.69" r="6.56" fill="#b2c2e0"/>
      <rect x="314.04" y="29.21" width="37.3" height=".94" fill="#039"/>
      <rect x="52.98" y="29.21" width="52.72" height=".94" fill="#039"/>
      <text transform="translate(312.83 26.79)" font-family="Ubuntu-Bold, Ubuntu" font-size="10"><tspan x="0" y="0">BE</tspan><tspan x="12.78" y="0" letter-spacing=".03em">T</tspan><tspan x="19.18" y="0">TER</tspan></text>
      <text transform="translate(52.15 26.79)" font-family="Ubuntu-Bold, Ubuntu" font-size="10"><tspan x="0" y="0">N</tspan><tspan x="7.56" y="0" letter-spacing="-.02em">O</tspan><tspan x="15.23" y="0" letter-spacing="0em">T IDEAL</tspan></text>
    </g>
  </g>
</svg>