<?xml version="1.0" encoding="UTF-8"?>
<svg xmlns="http://www.w3.org/2000/svg" viewBox="0 0 471.19 250">
  <g id="Hintergrund">
    <rect x="-.35" y="-1.69" width="471.19" height="250" fill="#f3f5fa"/>
  </g>
  <g id="Text">
    <g>
      <rect x="313.4" y="29.99" width="38.5" height=".94" fill="#039"/>
      <rect x="111.84" y="29.84" width="53.4" height=".94" fill="#039"/>
      <text transform="translate(313.62 27.59)" font-family="Ubuntu-Bold, Ubuntu" font-size="10"><tspan x="0" y="0">BE</tspan><tspan x="12.78" y="0" letter-spacing=".03em">T</tspan><tspan x="19.18" y="0">TER</tspan></text>
      <text transform="translate(111.94 27.43)" font-family="Ubuntu-Bold, Ubuntu" font-size="10"><tspan x="0" y="0">N</tspan><tspan x="7.56" y="0" letter-spacing="-.02em">O</tspan><tspan x="15.23" y="0" letter-spacing="0em">T IDEAL</tspan></text>
      <ellipse cx="138.54" cy="138.95" rx="46.51" ry="47.43" fill="#ff9433"/>
      <g>
        <rect x="83.96" y="83.54" width="109.16" height="111.34" fill="none"/>
        <path d="M171.55,105.54c8.45,8.62,13.67,20.52,13.67,33.67,0,26.3-20.9,47.62-46.69,47.62s-46.69-21.32-46.69-47.62,20.9-47.62,46.69-47.62v47.62l33.01-33.67Z" fill="#80de85"/>
      </g>
      <ellipse cx="332.65" cy="137.18" rx="46.51" ry="47.43" fill="#039"/>
      <g>
        <rect x="278.07" y="81.77" width="109.16" height="111.34" fill="none"/>
        <path d="M365.66,103.77c8.45,8.62,13.67,20.52,13.67,33.67,0,26.3-20.9,47.62-46.69,47.62s-46.69-21.32-46.69-47.62,20.9-47.62,46.69-47.62v47.62l33.01-33.67Z" fill="#b2c2e0"/>
      </g>
    </g>
  </g>
</svg>