<?xml version="1.0" encoding="UTF-8"?>
<svg xmlns="http://www.w3.org/2000/svg" viewBox="0 0 471.19 250">
  <g id="Hintergrund">
    <rect x="-.13" y="-.88" width="471.19" height="250" fill="#f3f5fa"/>
  </g>
  <g id="Text">
    <g>
      <rect x="300.36" y="29.11" width="38.83" height=".94" fill="#039"/>
      <rect x="111.82" y="29.11" width="52.43" height=".94" fill="#039"/>
      <text transform="translate(300.54 26.69)" font-family="Ubuntu-Bold, Ubuntu" font-size="10"><tspan x="0" y="0">BE</tspan><tspan x="12.78" y="0" letter-spacing=".03em">T</tspan><tspan x="19.18" y="0">TER</tspan></text>
      <text transform="translate(110.99 26.69)" font-family="Ubuntu-Bold, Ubuntu" font-size="10"><tspan x="0" y="0">N</tspan><tspan x="7.56" y="0" letter-spacing="-.02em">O</tspan><tspan x="15.23" y="0" letter-spacing="0em">T IDEAL</tspan></text>
      <g>
        <circle cx="137.59" cy="137.3" r="38.47" transform="translate(-5.27 5.49) rotate(-2.24)" fill="#80de85"/>
        <path d="M164.9,109.99c6.99,6.99,11.31,16.64,11.31,27.31,0,21.33-17.29,38.62-38.62,38.62s-38.62-17.29-38.62-38.62,17.29-38.62,38.62-38.62v38.62s27.31-27.31,27.31-27.31Z" fill="#feaa2f"/>
      </g>
      <g>
        <text transform="translate(153 86.19)" font-family="Ubuntu-Regular, Ubuntu" font-size="10"><tspan x="0" y="0" letter-spacing="-.02em">P</tspan><tspan x="5.87" y="0" letter-spacing="0em">ositi</tspan><tspan x="25.31" y="0" letter-spacing="-.01em">v</tspan><tspan x="30.19" y="0">e</tspan></text>
        <text transform="translate(94.98 86.19)" font-family="Ubuntu-Regular, Ubuntu" font-size="10"><tspan x="0" y="0">Negati</tspan><tspan x="30.42" y="0" letter-spacing="-.01em">v</tspan><tspan x="35.3" y="0">e</tspan></text>
        <circle cx="147.06" cy="82.84" r="2.82" fill="#80de85"/>
        <circle cx="89.22" cy="82.84" r="2.82" fill="#feaa2f"/>
      </g>
      <g>
        <text transform="translate(349.21 85.22)" font-family="Ubuntu-Regular, Ubuntu" font-size="10"><tspan x="0" y="0" letter-spacing="-.02em">P</tspan><tspan x="5.87" y="0" letter-spacing="0em">ositi</tspan><tspan x="25.31" y="0" letter-spacing="-.01em">v</tspan><tspan x="30.19" y="0">e</tspan></text>
        <text transform="translate(254.13 85.06)" font-family="Ubuntu-Regular, Ubuntu" font-size="10"><tspan x="0" y="0">Negati</tspan><tspan x="30.42" y="0" letter-spacing="-.01em">v</tspan><tspan x="35.3" y="0">e</tspan></text>
        <path d="M330.8,100.47v-12.67c0-3.25,2.66-5.91,5.91-5.91h10.12" fill="none" stroke="#c0c1c3" stroke-linecap="round" stroke-miterlimit="10" stroke-width=".57"/>
        <path d="M313.14,100.15v-12.34c0-3.25-2.66-5.91-5.91-5.91h-9.98" fill="none" stroke="#c0c1c3" stroke-linecap="round" stroke-miterlimit="10" stroke-width=".57"/>
        <circle cx="319.95" cy="137.5" r="38.47" transform="translate(-5.14 12.62) rotate(-2.24)" fill="#039"/>
        <path d="M347.26,110.2c6.99,6.99,11.31,16.64,11.31,27.31,0,21.33-17.29,38.62-38.62,38.62-21.33,0-38.62-17.29-38.62-38.62,0-21.33,17.29-38.62,38.62-38.62v38.62s27.31-27.31,27.31-27.31Z" fill="#f7a7b6"/>
      </g>
    </g>
  </g>
</svg>