<?xml version="1.0" encoding="UTF-8"?>
<svg xmlns="http://www.w3.org/2000/svg" viewBox="0 0 471.19 250">
  <g id="Hintergrund">
    <rect y="0" width="472.75" height="250" fill="#f3f5fa"/>
  </g>
  <g id="Layer_1" data-name="Layer 1">
    <g>
      <text transform="translate(418.02 166.63)" fill="#039" font-family="Ubuntu-Regular, Ubuntu" font-size="10"><tspan x="0" y="0" letter-spacing="-.08em">1</tspan><tspan x="4.84" y="0">8 – 40</tspan></text>
      <g>
        <text transform="translate(31.99 54.08)" font-family="Ubuntu-Regular, Ubuntu" font-size="10"><tspan x="0" y="0" letter-spacing="-.08em">1</tspan><tspan x="4.84" y="0">8 – 40</tspan></text>
        <circle cx="25.42" cy="50.61" r="4.59" fill="#039"/>
      </g>
      <text transform="translate(418.82 150.77)" fill="#6685c2" font-family="Ubuntu-Regular, Ubuntu" font-size="10"><tspan x="0" y="0" letter-spacing="-.08em">4</tspan><tspan x="4.84" y="0" letter-spacing="-.1em">1</tspan><tspan x="9.48" y="0" xml:space="preserve" letter-spacing="0em"> – 80</tspan></text>
      <g>
        <text transform="translate(84.44 54.46)" font-family="Ubuntu-Regular, Ubuntu" font-size="10"><tspan x="0" y="0" letter-spacing="-.08em">41</tspan><tspan x="9.68" y="0" xml:space="preserve" letter-spacing="0em"> – 80</tspan></text>
        <circle cx="77.07" cy="50.61" r="4.59" fill="#6685c2"/>
      </g>
      <text transform="translate(418.82 126.19)" fill="#b2c2e0" font-family="Ubuntu-Regular, Ubuntu" font-size="10"><tspan x="0" y="0">older </tspan><tspan x="0" y="11">than 80</tspan></text>
      <g>
        <text transform="translate(136.08 53.72)" font-family="Ubuntu-Regular, Ubuntu" font-size="10"><tspan x="0" y="0">older than 80</tspan></text>
        <circle cx="128.71" cy="50.25" r="4.59" fill="#b2c2e0"/>
      </g>
      <rect x="243.02" y="29.21" width="37.3" height=".94" fill="#039"/>
      <rect x="18.92" y="29.21" width="30.15" height=".94" fill="#039"/>
      <text transform="translate(241.81 26.79)" font-family="Ubuntu-Bold, Ubuntu" font-size="10"><tspan x="0" y="0">BE</tspan><tspan x="12.78" y="0" letter-spacing=".03em">T</tspan><tspan x="19.18" y="0">TER</tspan></text>
      <text transform="translate(18.09 26.79)" font-family="Ubuntu-Bold, Ubuntu" font-size="10"><tspan x="0" y="0">GOOD</tspan></text>
      <line x1="196.64" y1="212.13" x2="38.93" y2="212.13" fill="none" stroke="#c0c1c3" stroke-linecap="round" stroke-miterlimit="10" stroke-width=".85"/>
      <line x1="196.64" y1="178.87" x2="38.93" y2="178.87" fill="none" stroke="#c0c1c3" stroke-linecap="round" stroke-miterlimit="10" stroke-width=".57"/>
      <line x1="196.64" y1="145.6" x2="38.93" y2="145.61" fill="none" stroke="#c0c1c3" stroke-linecap="round" stroke-miterlimit="10" stroke-width=".57"/>
      <line x1="196.64" y1="112.34" x2="38.93" y2="112.34" fill="none" stroke="#c0c1c3" stroke-linecap="round" stroke-miterlimit="10" stroke-width=".57"/>
      <line x1="196.64" y1="79.08" x2="38.93" y2="79.08" fill="none" stroke="#c0c1c3" stroke-linecap="round" stroke-miterlimit="10" stroke-width=".57"/>
      <text transform="translate(38.11 225.2)" fill="#58585a" font-family="Ubuntu-Regular, Ubuntu" font-size="10"><tspan x="0" y="0">2020</tspan></text>
      <text transform="translate(174.08 225.2)" fill="#58585a" font-family="Ubuntu-Regular, Ubuntu" font-size="10"><tspan x="0" y="0">2022</tspan></text>
      <text transform="translate(20.83 114.96)" fill="#58585a" font-family="Ubuntu-Regular, Ubuntu" font-size="10"><tspan x="0" y="0">60</tspan></text>
      <text transform="translate(20.83 81.8)" fill="#58585a" font-family="Ubuntu-Regular, Ubuntu" font-size="10"><tspan x="0" y="0">80</tspan></text>
      <text transform="translate(20.83 147.16)" fill="#58585a" font-family="Ubuntu-Regular, Ubuntu" font-size="10"><tspan x="0" y="0">40</tspan></text>
      <text transform="translate(20.83 180.88)" fill="#58585a" font-family="Ubuntu-Regular, Ubuntu" font-size="10"><tspan x="0" y="0">20</tspan></text>
      <text transform="translate(26.48 212.24)" fill="#58585a" font-family="Ubuntu-Regular, Ubuntu" font-size="10"><tspan x="0" y="0">0</tspan></text>
      <line x1="415.87" y1="212.13" x2="258.17" y2="212.13" fill="none" stroke="#c0c1c3" stroke-linecap="round" stroke-miterlimit="10" stroke-width=".85"/>
      <line x1="415.87" y1="178.87" x2="258.17" y2="178.87" fill="none" stroke="#c0c1c3" stroke-linecap="round" stroke-miterlimit="10" stroke-width=".57"/>
      <line x1="415.87" y1="145.6" x2="258.17" y2="145.61" fill="none" stroke="#c0c1c3" stroke-linecap="round" stroke-miterlimit="10" stroke-width=".57"/>
      <line x1="415.87" y1="112.34" x2="258.17" y2="112.34" fill="none" stroke="#c0c1c3" stroke-linecap="round" stroke-miterlimit="10" stroke-width=".57"/>
      <line x1="415.87" y1="79.08" x2="258.17" y2="79.08" fill="none" stroke="#c0c1c3" stroke-linecap="round" stroke-miterlimit="10" stroke-width=".57"/>
      <text transform="translate(257.34 225.2)" fill="#58585a" font-family="Ubuntu-Regular, Ubuntu" font-size="10"><tspan x="0" y="0">2020</tspan></text>
      <text transform="translate(393.31 225.2)" fill="#58585a" font-family="Ubuntu-Regular, Ubuntu" font-size="10"><tspan x="0" y="0">2022</tspan></text>
      <text transform="translate(240.07 114.96)" fill="#58585a" font-family="Ubuntu-Regular, Ubuntu" font-size="10"><tspan x="0" y="0">60</tspan></text>
      <text transform="translate(240.07 81.8)" fill="#58585a" font-family="Ubuntu-Regular, Ubuntu" font-size="10"><tspan x="0" y="0">80</tspan></text>
      <text transform="translate(240.07 147.16)" fill="#58585a" font-family="Ubuntu-Regular, Ubuntu" font-size="10"><tspan x="0" y="0">40</tspan></text>
      <text transform="translate(240.07 180.88)" fill="#58585a" font-family="Ubuntu-Regular, Ubuntu" font-size="10"><tspan x="0" y="0">20</tspan></text>
      <text transform="translate(245.71 212.24)" fill="#58585a" font-family="Ubuntu-Regular, Ubuntu" font-size="10"><tspan x="0" y="0">0</tspan></text>
      <g>
        <path d="M38.93,198.85l5.21-.42,5.21-.37,5.22-.77,5.21-.73,5.21-1.41,5.21,.52,5.22,.38,5.21,.09,5.21,.63,5.21-.61,5.22-.72,5.21-1.31,5.21-3.04,5.21-3.63,5.22-3.52,5.21-3.05,5.21-2.26,5.21-.48,5.22-2.34,5.21-3.2,5.21-4.8,5.21-2.11,5.22,.04,5.21,.83,5.21,.94,5.21,.36,5.22-.77,5.21-1.71,5.21-.99,5.21-1.1" fill="none" stroke="#039" stroke-linejoin="round" stroke-width="2"/>
        <path d="M38.93,99.75l5.21,2.61,5.21-.74,5.22-1.53,5.21-.73,5.21-.57,5.21-1.57,5.22-4.87,5.21,.66,5.21,1.23,5.21-1.77,5.22,2.39,5.21,4.01,5.21,.12,5.21-2.01,5.22,1.95,5.21,3.79,5.21-1.26,5.21,4.01,5.22,8.63,5.21-3.13,5.21,5.2,5.21,4.82,5.22-2.39,5.21,.32,5.21,1.66,5.21,4.53,5.22,1,5.21-2.94,5.21,1.5,5.21,12.56" fill="none" stroke="#b2c2e0" stroke-linejoin="round" stroke-width="2"/>
        <path d="M38.93,105.39l5.21,1.52,5.21,7.9,5.22,8.63,5.21,12.14,5.21,5.26,5.21,4.86,5.22,7.68,5.21,2.66,5.21-1.14,5.21-.41,5.22,1.67,5.21,.96,5.21-2.21,5.21-1.88,5.22-.4,5.21-1.16,5.21-.08,5.21,2.28,5.22,6.85,5.21-1.4,5.21-5.99,5.21,1.29,5.22-.17,5.21,2.39,5.21-3.18,5.21,1.51,5.22-1.95,5.21-3.65,5.21-4.81,5.21,2.72" fill="none" stroke="#6685c2" stroke-linejoin="round" stroke-width="2"/>
      </g>
      <g>
        <path d="M258.17,198.85l5.21-.42,5.21-.37,5.22-.77,5.21-.73,5.21-1.41,5.21,.52,5.22,.38,5.21,.09,5.21,.63,5.21-.61,5.22-.72,5.21-1.31,5.21-3.04,5.21-3.63,5.22-3.52,5.21-3.05,5.21-2.26,5.21-.48,5.22-2.34,5.21-3.2,5.21-4.8,5.21-2.11,5.22,.04,5.21,.83,5.21,.94,5.21,.36,5.22-.77,5.21-1.71,5.21-.99,5.21-1.1" fill="none" stroke="#039" stroke-linejoin="round" stroke-width="2"/>
        <path d="M258.17,99.75l5.21,2.61,5.21-.74,5.22-1.53,5.21-.73,5.21-.57,5.21-1.57,5.22-4.87,5.21,.66,5.21,1.23,5.21-1.77,5.22,2.39,5.21,4.01,5.21,.12,5.21-2.01,5.22,1.95,5.21,3.79,5.21-1.26,5.21,4.01,5.22,8.63,5.21-3.13,5.21,5.2,5.21,4.82,5.22-2.39,5.21,.32,5.21,1.66,5.21,4.53,5.22,1,5.21-2.94,5.21,1.5,5.21,12.56" fill="none" stroke="#b2c2e0" stroke-linejoin="round" stroke-width="2"/>
        <path d="M258.17,105.39l5.21,1.52,5.21,7.9,5.22,8.63,5.21,12.14,5.21,5.26,5.21,4.86,5.22,7.68,5.21,2.66,5.21-1.14,5.21-.41,5.22,1.67,5.21,.96,5.21-2.21,5.21-1.88,5.22-.4,5.21-1.16,5.21-.08,5.21,2.28,5.22,6.85,5.21-1.4,5.21-5.99,5.21,1.29,5.22-.17,5.21,2.39,5.21-3.18,5.21,1.51,5.22-1.95,5.21-3.65,5.21-4.81,5.21,2.72" fill="none" stroke="#6685c2" stroke-linejoin="round" stroke-width="2"/>
      </g>
    </g>
  </g>
</svg>