<?xml version="1.0" encoding="UTF-8"?>
<svg xmlns="http://www.w3.org/2000/svg" viewBox="0 0 471.19 250">
  <g id="Hintergrund">
    <rect x=".25" y="0" width="471.19" height="250" fill="#f3f5fa"/>
  </g>
  <g id="Text">
    <text transform="translate(29.3 57.01)" font-family="Ubuntu-Bold, Ubuntu" font-size="10"><tspan x="0" y="0">Let</tspan><tspan x="15.91" y="0" letter-spacing="-.02em">t</tspan><tspan x="20.15" y="0">ers </tspan><tspan x="37.46" y="0" letter-spacing="-.01em">b</tspan><tspan x="43.36" y="0">y popu</tspan><tspan x="75.27" y="0" letter-spacing=".02em">l</tspan><tspan x="78.58" y="0" letter-spacing="0em">ari</tspan><tspan x="91.22" y="0" letter-spacing=".01em">t</tspan><tspan x="95.76" y="0">y</tspan></text>
    <g>
      <path d="M265.43,71.58v.84h-4.17v-6.93h.97v6.09h3.2Z"/>
      <path d="M265.98,69.83c0-.46,.07-.86,.2-1.21s.31-.63,.53-.85c.22-.23,.47-.4,.76-.51,.29-.11,.58-.17,.88-.17,.7,0,1.24,.22,1.61,.66,.37,.44,.56,1.1,.56,1.99v.16c0,.06,0,.12,0,.17h-3.56c.04,.54,.2,.95,.47,1.23,.27,.28,.7,.42,1.28,.42,.33,0,.6-.03,.82-.08,.22-.06,.39-.11,.5-.17l.13,.78c-.11,.06-.31,.12-.6,.19s-.6,.1-.96,.1c-.45,0-.84-.07-1.17-.21s-.6-.33-.82-.56c-.21-.24-.37-.52-.47-.85s-.16-.69-.16-1.08Zm3.57-.51c0-.42-.1-.77-.32-1.03-.22-.27-.51-.41-.89-.41-.21,0-.4,.04-.57,.12-.16,.08-.3,.19-.42,.33s-.2,.29-.26,.46-.11,.35-.12,.53h2.58Z"/>
      <path d="M272.73,67.22h1.97v.78h-1.97v2.4c0,.26,.02,.48,.06,.65,.04,.17,.1,.3,.18,.4s.18,.17,.3,.21,.26,.06,.42,.06c.28,0,.5-.03,.67-.1,.17-.06,.29-.11,.36-.13l.18,.77c-.09,.05-.26,.1-.49,.17-.23,.07-.5,.1-.8,.1-.35,0-.64-.04-.88-.13-.23-.09-.42-.23-.55-.41-.14-.18-.24-.4-.29-.67-.06-.26-.08-.57-.08-.91v-4.64l.93-.16v1.61Z"/>
      <path d="M276.75,67.22h1.97v.78h-1.97v2.4c0,.26,.02,.48,.06,.65,.04,.17,.1,.3,.18,.4s.18,.17,.3,.21,.26,.06,.42,.06c.28,0,.5-.03,.67-.1,.17-.06,.29-.11,.36-.13l.18,.77c-.09,.05-.26,.1-.49,.17-.23,.07-.5,.1-.8,.1-.35,0-.64-.04-.88-.13-.23-.09-.42-.23-.55-.41-.14-.18-.24-.4-.29-.67-.06-.26-.08-.57-.08-.91v-4.64l.93-.16v1.61Z"/>
      <path d="M279.51,69.83c0-.46,.07-.86,.2-1.21s.31-.63,.53-.85c.22-.23,.47-.4,.76-.51,.29-.11,.58-.17,.88-.17,.7,0,1.24,.22,1.61,.66,.37,.44,.56,1.1,.56,1.99v.16c0,.06,0,.12,0,.17h-3.56c.04,.54,.2,.95,.47,1.23,.27,.28,.7,.42,1.28,.42,.33,0,.6-.03,.82-.08,.22-.06,.39-.11,.5-.17l.13,.78c-.11,.06-.31,.12-.6,.19s-.6,.1-.96,.1c-.45,0-.84-.07-1.17-.21s-.6-.33-.82-.56c-.21-.24-.37-.52-.47-.85s-.16-.69-.16-1.08Zm3.57-.51c0-.42-.1-.77-.32-1.03-.22-.27-.51-.41-.89-.41-.21,0-.4,.04-.57,.12-.16,.08-.3,.19-.42,.33s-.2,.29-.26,.46-.11,.35-.12,.53h2.58Z"/>
      <path d="M287.31,67.11c.08,0,.17,0,.28,.02,.1,0,.21,.02,.3,.04,.1,.02,.19,.03,.28,.05,.08,.02,.14,.03,.18,.04l-.16,.81c-.07-.03-.19-.06-.36-.09s-.39-.06-.66-.06c-.17,0-.34,.02-.51,.06-.17,.04-.28,.06-.33,.07v4.37h-.93v-4.98c.22-.08,.49-.15,.82-.23,.33-.07,.69-.1,1.1-.1Z"/>
      <path d="M290.46,71.75c.38,0,.66-.05,.85-.15,.18-.1,.27-.26,.27-.48s-.09-.41-.27-.54c-.18-.13-.48-.28-.89-.45-.2-.08-.39-.16-.58-.25-.18-.08-.34-.18-.47-.29s-.24-.25-.32-.41c-.08-.16-.12-.36-.12-.59,0-.46,.17-.82,.51-1.09s.8-.41,1.39-.41c.15,0,.29,0,.44,.02,.15,.02,.28,.04,.41,.06,.13,.02,.24,.05,.33,.08,.1,.03,.17,.05,.22,.07l-.17,.8c-.1-.05-.26-.11-.47-.17-.21-.06-.47-.08-.77-.08-.26,0-.49,.05-.68,.15-.19,.1-.29,.27-.29,.48,0,.11,.02,.21,.06,.3,.04,.09,.11,.17,.2,.23s.2,.13,.33,.19c.13,.06,.29,.12,.48,.19,.25,.09,.47,.19,.66,.28,.19,.09,.36,.19,.49,.31s.24,.27,.32,.44,.11,.38,.11,.62c0,.48-.18,.84-.54,1.09s-.87,.37-1.53,.37c-.46,0-.82-.04-1.08-.12-.26-.08-.44-.13-.53-.17l.17-.8c.11,.04,.28,.1,.51,.18s.54,.12,.93,.12Z"/>
      <path d="M296.95,67.45c.11-.07,.28-.15,.51-.23,.23-.08,.5-.12,.79-.12,.37,0,.71,.07,1,.2,.29,.13,.54,.32,.73,.56,.2,.24,.35,.53,.46,.86,.1,.33,.16,.7,.16,1.1,0,.42-.06,.8-.18,1.14-.12,.34-.3,.62-.53,.85s-.5,.41-.82,.54c-.32,.13-.68,.19-1.08,.19-.43,0-.82-.03-1.15-.09-.33-.06-.61-.12-.82-.18v-7.45l.93-.16v2.79Zm0,4.16c.09,.03,.22,.05,.39,.08s.38,.03,.63,.03c.5,0,.9-.17,1.2-.49,.3-.33,.45-.8,.45-1.41,0-.27-.03-.52-.08-.75-.05-.23-.14-.44-.26-.6s-.28-.3-.46-.4c-.19-.1-.42-.15-.69-.15s-.49,.04-.7,.13c-.21,.09-.38,.18-.49,.27v3.29Z"/>
      <path d="M301.17,73.39c.07,.03,.17,.06,.28,.09,.12,.03,.23,.04,.35,.04,.37,0,.65-.08,.86-.24,.21-.16,.39-.43,.56-.8-.42-.8-.81-1.65-1.17-2.54-.36-.9-.67-1.8-.91-2.73h1c.07,.3,.16,.62,.26,.97s.22,.7,.34,1.07c.13,.37,.26,.73,.41,1.1s.3,.72,.46,1.06c.25-.7,.47-1.39,.66-2.08,.19-.69,.36-1.39,.53-2.12h.96c-.24,.98-.51,1.92-.8,2.83-.29,.9-.61,1.75-.95,2.54-.13,.3-.27,.56-.42,.77-.14,.22-.3,.4-.47,.54-.17,.14-.37,.24-.58,.31-.22,.07-.46,.1-.74,.1-.07,0-.15,0-.23-.01-.08-.01-.16-.02-.23-.04-.08-.02-.15-.04-.21-.06s-.11-.04-.14-.05l.17-.75Z"/>
      <path d="M313.64,69.83c0,.39-.05,.76-.16,1.09s-.25,.62-.46,.86c-.2,.24-.44,.43-.73,.56s-.62,.2-1,.2c-.3,0-.57-.04-.79-.12-.23-.08-.4-.16-.51-.23v2.08h-.93v-6.89c.22-.05,.5-.11,.83-.17s.71-.1,1.14-.1c.4,0,.76,.06,1.08,.19,.32,.13,.59,.31,.82,.54s.4,.52,.53,.85c.12,.34,.18,.72,.18,1.14Zm-.97,0c0-.61-.15-1.07-.45-1.4-.3-.33-.7-.49-1.2-.49-.28,0-.5,0-.65,.03-.16,.02-.28,.04-.38,.07v3.28c.11,.09,.28,.18,.49,.27,.21,.09,.45,.13,.7,.13,.27,0,.5-.05,.69-.15,.19-.1,.34-.23,.46-.4s.21-.37,.26-.6c.05-.23,.08-.48,.08-.74Z"/>
      <path d="M319.54,69.82c0,.41-.06,.79-.18,1.12s-.29,.62-.5,.86c-.22,.24-.47,.43-.78,.56-.3,.13-.63,.19-.98,.19s-.68-.06-.98-.19-.56-.31-.77-.56c-.22-.24-.39-.53-.5-.86-.12-.33-.18-.71-.18-1.12s.06-.78,.18-1.11c.12-.34,.29-.62,.5-.87,.22-.24,.47-.42,.77-.55,.3-.13,.63-.2,.98-.2s.68,.06,.98,.2c.3,.13,.56,.31,.78,.55,.22,.24,.38,.53,.5,.87,.12,.34,.18,.71,.18,1.11Zm-.97,0c0-.59-.13-1.05-.39-1.4-.26-.34-.62-.51-1.08-.51s-.81,.17-1.08,.51c-.26,.34-.39,.81-.39,1.4s.13,1.05,.39,1.4c.26,.34,.62,.52,1.08,.52s.81-.17,1.08-.52c.26-.34,.39-.81,.39-1.4Z"/>
      <path d="M325.43,69.83c0,.39-.05,.76-.16,1.09s-.25,.62-.46,.86c-.2,.24-.44,.43-.73,.56s-.62,.2-1,.2c-.3,0-.57-.04-.79-.12-.23-.08-.4-.16-.51-.23v2.08h-.93v-6.89c.22-.05,.5-.11,.83-.17s.71-.1,1.14-.1c.4,0,.76,.06,1.08,.19,.32,.13,.59,.31,.82,.54s.4,.52,.53,.85c.12,.34,.18,.72,.18,1.14Zm-.97,0c0-.61-.15-1.07-.45-1.4-.3-.33-.7-.49-1.2-.49-.28,0-.5,0-.65,.03-.16,.02-.28,.04-.38,.07v3.28c.11,.09,.28,.18,.49,.27,.21,.09,.45,.13,.7,.13,.27,0,.5-.05,.69-.15,.19-.1,.34-.23,.46-.4s.21-.37,.26-.6c.05-.23,.08-.48,.08-.74Z"/>
      <path d="M330.88,72.27c-.21,.05-.5,.11-.85,.17-.35,.06-.75,.09-1.21,.09-.4,0-.74-.06-1.01-.17s-.49-.28-.66-.5-.29-.46-.36-.75-.11-.61-.11-.96v-2.92h.93v2.72c0,.63,.1,1.09,.3,1.36,.2,.27,.54,.41,1.01,.41,.1,0,.2,0,.31-.01,.11,0,.21-.01,.3-.02,.09,0,.18-.02,.25-.03,.08-.01,.13-.02,.17-.04v-4.39h.93v5.05Z"/>
      <path d="M334.04,72.52c-.57-.01-.98-.14-1.22-.37-.24-.23-.36-.6-.36-1.09v-6.24l.93-.16v6.25c0,.15,.01,.28,.04,.38s.07,.18,.13,.24c.06,.06,.14,.1,.24,.14,.1,.03,.22,.05,.37,.07l-.13,.78Z"/>
      <path d="M336.89,67.09c.37,0,.69,.05,.94,.15s.46,.23,.62,.41,.27,.39,.33,.63c.07,.24,.1,.51,.1,.81v3.25c-.08,.01-.19,.03-.34,.05-.14,.02-.3,.04-.48,.06s-.38,.04-.58,.06-.42,.02-.62,.02c-.29,0-.56-.03-.81-.09-.25-.06-.46-.15-.64-.29-.18-.13-.32-.3-.42-.51s-.15-.47-.15-.77,.06-.53,.18-.74c.12-.21,.27-.37,.47-.5,.2-.13,.43-.22,.7-.28s.55-.09,.84-.09c.09,0,.19,0,.29,.02,.1,.01,.2,.02,.29,.04s.17,.03,.23,.04c.07,.01,.11,.02,.14,.03v-.26c0-.15-.02-.31-.05-.46-.03-.15-.09-.28-.18-.4s-.21-.21-.35-.28c-.15-.07-.35-.1-.58-.1-.31,0-.58,.02-.81,.06-.23,.04-.4,.09-.51,.13l-.11-.77c.12-.05,.32-.1,.6-.15,.28-.05,.58-.08,.91-.08Zm.08,4.66c.22,0,.42,0,.58-.02,.17,0,.31-.03,.43-.06v-1.55c-.07-.03-.18-.06-.33-.08-.15-.02-.33-.04-.54-.04-.14,0-.29,.01-.45,.03s-.3,.06-.43,.12-.24,.15-.33,.26c-.09,.11-.13,.25-.13,.44,0,.33,.11,.56,.32,.69,.21,.13,.5,.2,.87,.2Z"/>
      <path d="M342.35,67.11c.08,0,.17,0,.28,.02,.1,0,.21,.02,.3,.04,.1,.02,.19,.03,.28,.05,.08,.02,.14,.03,.18,.04l-.16,.81c-.07-.03-.19-.06-.36-.09s-.39-.06-.66-.06c-.17,0-.34,.02-.51,.06-.17,.04-.28,.06-.33,.07v4.37h-.93v-4.98c.22-.08,.49-.15,.82-.23,.33-.07,.69-.1,1.1-.1Z"/>
      <path d="M344.75,66.28c-.17,0-.31-.05-.42-.17-.12-.11-.17-.26-.17-.44s.06-.33,.17-.44c.12-.11,.26-.17,.42-.17s.31,.05,.42,.17c.12,.11,.18,.26,.18,.44s-.06,.33-.18,.44c-.12,.11-.26,.17-.42,.17Zm.47,6.14h-.93v-5.2h.93v5.2Z"/>
      <path d="M347.69,67.22h1.97v.78h-1.97v2.4c0,.26,.02,.48,.06,.65,.04,.17,.1,.3,.18,.4s.18,.17,.3,.21,.26,.06,.42,.06c.28,0,.5-.03,.67-.1,.17-.06,.29-.11,.36-.13l.18,.77c-.09,.05-.26,.1-.49,.17-.23,.07-.5,.1-.8,.1-.35,0-.64-.04-.88-.13-.23-.09-.42-.23-.55-.41-.14-.18-.24-.4-.29-.67-.06-.26-.08-.57-.08-.91v-4.64l.93-.16v1.61Z"/>
      <path d="M350.23,73.39c.07,.03,.17,.06,.28,.09,.12,.03,.23,.04,.35,.04,.37,0,.65-.08,.86-.24,.21-.16,.39-.43,.56-.8-.42-.8-.81-1.65-1.17-2.54-.36-.9-.67-1.8-.91-2.73h1c.07,.3,.16,.62,.26,.97s.22,.7,.34,1.07c.13,.37,.26,.73,.41,1.1s.3,.72,.46,1.06c.25-.7,.47-1.39,.66-2.08,.19-.69,.36-1.39,.53-2.12h.96c-.24,.98-.51,1.92-.8,2.83-.29,.9-.61,1.75-.95,2.54-.13,.3-.27,.56-.42,.77-.14,.22-.3,.4-.47,.54-.17,.14-.37,.24-.58,.31-.22,.07-.46,.1-.74,.1-.07,0-.15,0-.23-.01-.08-.01-.16-.02-.23-.04-.08-.02-.15-.04-.21-.06s-.11-.04-.14-.05l.17-.75Z"/>
      <path d="M358.58,66.28c-.17,0-.31-.05-.42-.17-.12-.11-.17-.26-.17-.44s.06-.33,.17-.44c.12-.11,.26-.17,.42-.17s.31,.05,.42,.17c.12,.11,.18,.26,.18,.44s-.06,.33-.18,.44c-.12,.11-.26,.17-.42,.17Zm.47,6.14h-.93v-5.2h.93v5.2Z"/>
      <path d="M360.65,67.37c.21-.05,.5-.11,.85-.17,.35-.06,.76-.09,1.22-.09,.41,0,.76,.06,1.03,.18,.27,.12,.49,.28,.65,.49,.16,.21,.28,.46,.35,.75,.07,.29,.1,.62,.1,.97v2.92h-.93v-2.72c0-.32-.02-.59-.07-.82s-.12-.41-.21-.55c-.1-.14-.23-.24-.4-.31-.17-.06-.37-.1-.62-.1-.1,0-.2,0-.31,.01-.11,0-.21,.02-.3,.02-.1,.01-.18,.02-.26,.04-.08,.01-.13,.02-.16,.03v4.39h-.93v-5.05Z"/>
      <path d="M369.57,67.22h1.97v.78h-1.97v2.4c0,.26,.02,.48,.06,.65,.04,.17,.1,.3,.18,.4s.18,.17,.3,.21,.26,.06,.42,.06c.28,0,.5-.03,.67-.1,.17-.06,.29-.11,.36-.13l.18,.77c-.09,.05-.26,.1-.49,.17-.23,.07-.5,.1-.8,.1-.35,0-.64-.04-.88-.13-.23-.09-.42-.23-.55-.41-.14-.18-.24-.4-.29-.67-.06-.26-.08-.57-.08-.91v-4.64l.93-.16v1.61Z"/>
      <path d="M372.72,72.42v-7.6l.93-.16v2.66c.17-.07,.36-.12,.55-.15,.2-.04,.39-.06,.58-.06,.41,0,.76,.06,1.03,.18,.27,.12,.49,.28,.65,.49,.16,.21,.28,.46,.35,.75,.07,.29,.1,.62,.1,.97v2.92h-.93v-2.72c0-.32-.02-.59-.07-.82s-.12-.41-.21-.55c-.1-.14-.23-.24-.4-.31-.17-.06-.37-.1-.62-.1-.1,0-.2,0-.31,.02-.11,.01-.21,.03-.3,.05s-.18,.03-.26,.05c-.08,.02-.13,.04-.16,.05v4.32h-.93Z"/>
      <path d="M378.14,69.83c0-.46,.07-.86,.2-1.21s.31-.63,.53-.85c.22-.23,.47-.4,.76-.51,.29-.11,.58-.17,.88-.17,.7,0,1.24,.22,1.61,.66,.37,.44,.56,1.1,.56,1.99v.16c0,.06,0,.12,0,.17h-3.56c.04,.54,.2,.95,.47,1.23,.27,.28,.7,.42,1.28,.42,.33,0,.6-.03,.82-.08,.22-.06,.39-.11,.5-.17l.13,.78c-.11,.06-.31,.12-.6,.19s-.6,.1-.96,.1c-.45,0-.84-.07-1.17-.21s-.6-.33-.82-.56c-.21-.24-.37-.52-.47-.85s-.16-.69-.16-1.08Zm3.57-.51c0-.42-.1-.77-.32-1.03-.22-.27-.51-.41-.89-.41-.21,0-.4,.04-.57,.12-.16,.08-.3,.19-.42,.33s-.2,.29-.26,.46-.11,.35-.12,.53h2.58Z"/>
      <path d="M386.39,72.42v-6.93h4.23v.83h-3.26v2.06h2.9v.81h-2.9v2.4h3.51v.83h-4.48Z"/>
      <path d="M394.46,72.57c-.45,0-.85-.07-1.18-.21-.33-.14-.61-.33-.82-.57-.21-.24-.37-.53-.48-.87s-.16-.69-.16-1.08v-4.35h.97v4.24c0,.69,.15,1.2,.46,1.51,.31,.31,.71,.47,1.2,.47,.25,0,.47-.04,.67-.12,.2-.08,.38-.19,.52-.35,.15-.16,.26-.36,.34-.61,.08-.25,.12-.55,.12-.9v-4.24h.97v4.35c0,.39-.05,.75-.16,1.08s-.26,.62-.48,.87c-.22,.24-.49,.43-.82,.57s-.72,.21-1.17,.21Z"/>
      <path d="M399.58,71.28c0,.05,0,.1,0,.16v.15c0,.42-.06,.83-.18,1.25-.12,.41-.29,.8-.51,1.17l-.72-.23c.17-.34,.28-.69,.33-1.03,.05-.35,.08-.68,.08-.99,0-.09,0-.17,0-.25,0-.08,0-.16-.02-.23h1.01Z"/>
      <path d="M265.07,79.26c0,.24-.05,.47-.14,.7-.1,.22-.23,.44-.39,.66-.16,.22-.34,.43-.54,.64-.2,.21-.4,.42-.6,.62-.11,.11-.25,.25-.39,.4-.15,.15-.29,.31-.43,.48-.13,.17-.25,.33-.33,.48s-.13,.29-.13,.4h3.19v.79h-4.2s0-.08,0-.12v-.11c0-.31,.05-.6,.15-.88s.24-.52,.41-.77c.17-.24,.35-.47,.56-.68,.21-.21,.41-.42,.61-.62,.17-.16,.33-.32,.47-.48,.15-.16,.28-.31,.4-.47,.12-.16,.21-.32,.28-.48,.07-.17,.1-.34,.1-.53,0-.2-.03-.37-.09-.51-.06-.14-.15-.26-.25-.35-.11-.09-.23-.16-.38-.2s-.29-.06-.46-.06c-.19,0-.37,.03-.53,.08-.16,.05-.3,.12-.43,.19-.13,.07-.23,.14-.32,.22s-.15,.13-.2,.17l-.46-.66c.06-.07,.15-.15,.27-.25s.26-.19,.43-.27c.17-.09,.35-.16,.56-.22,.21-.06,.43-.09,.67-.09,.73,0,1.27,.17,1.63,.5,.36,.34,.54,.81,.54,1.42Z"/>
      <path d="M266.54,80.95c0-1.16,.21-2.05,.62-2.68s.98-.94,1.71-.94,1.29,.31,1.71,.94c.41,.63,.61,1.52,.61,2.68s-.21,2.05-.61,2.68c-.41,.63-.98,.94-1.71,.94s-1.29-.31-1.71-.94c-.41-.63-.62-1.52-.62-2.68Zm3.66,0c0-.38-.02-.74-.07-1.08-.04-.34-.12-.64-.22-.89s-.24-.46-.42-.6c-.17-.15-.39-.23-.64-.23s-.47,.08-.64,.23c-.17,.15-.31,.35-.42,.6s-.18,.55-.22,.89c-.04,.34-.06,.7-.06,1.08s.02,.74,.06,1.08c.04,.34,.12,.64,.22,.89s.24,.46,.42,.6c.17,.15,.39,.23,.64,.23s.47-.08,.64-.23c.17-.15,.31-.35,.42-.6s.18-.55,.22-.89c.04-.34,.07-.7,.07-1.08Z"/>
      <path d="M276.35,79.26c0,.24-.05,.47-.14,.7-.1,.22-.23,.44-.39,.66-.16,.22-.34,.43-.54,.64-.2,.21-.4,.42-.6,.62-.11,.11-.25,.25-.39,.4-.15,.15-.29,.31-.43,.48-.13,.17-.25,.33-.33,.48s-.13,.29-.13,.4h3.19v.79h-4.2s0-.08,0-.12v-.11c0-.31,.05-.6,.15-.88s.24-.52,.41-.77c.17-.24,.35-.47,.56-.68,.21-.21,.41-.42,.61-.62,.17-.16,.33-.32,.47-.48,.15-.16,.28-.31,.4-.47,.12-.16,.21-.32,.28-.48,.07-.17,.1-.34,.1-.53,0-.2-.03-.37-.09-.51-.06-.14-.15-.26-.25-.35-.11-.09-.23-.16-.38-.2s-.29-.06-.46-.06c-.19,0-.37,.03-.53,.08-.16,.05-.3,.12-.43,.19-.13,.07-.23,.14-.32,.22s-.15,.13-.2,.17l-.46-.66c.06-.07,.15-.15,.27-.25s.26-.19,.43-.27c.17-.09,.35-.16,.56-.22,.21-.06,.43-.09,.67-.09,.73,0,1.27,.17,1.63,.5,.36,.34,.54,.81,.54,1.42Z"/>
      <path d="M281.99,79.26c0,.24-.05,.47-.14,.7-.1,.22-.23,.44-.39,.66-.16,.22-.34,.43-.54,.64-.2,.21-.4,.42-.6,.62-.11,.11-.25,.25-.39,.4-.15,.15-.29,.31-.43,.48-.13,.17-.25,.33-.33,.48s-.13,.29-.13,.4h3.19v.79h-4.2s0-.08,0-.12v-.11c0-.31,.05-.6,.15-.88s.24-.52,.41-.77c.17-.24,.35-.47,.56-.68,.21-.21,.41-.42,.61-.62,.17-.16,.33-.32,.47-.48,.15-.16,.28-.31,.4-.47,.12-.16,.21-.32,.28-.48,.07-.17,.1-.34,.1-.53,0-.2-.03-.37-.09-.51-.06-.14-.15-.26-.25-.35-.11-.09-.23-.16-.38-.2s-.29-.06-.46-.06c-.19,0-.37,.03-.53,.08-.16,.05-.3,.12-.43,.19-.13,.07-.23,.14-.32,.22s-.15,.13-.2,.17l-.46-.66c.06-.07,.15-.15,.27-.25s.26-.19,.43-.27c.17-.09,.35-.16,.56-.22,.21-.06,.43-.09,.67-.09,.73,0,1.27,.17,1.63,.5,.36,.34,.54,.81,.54,1.42Z"/>
      <path d="M284.74,83.28c0,.05,0,.1,0,.16v.15c0,.42-.06,.83-.18,1.25-.12,.41-.29,.8-.51,1.17l-.72-.23c.17-.34,.28-.69,.33-1.03,.05-.35,.08-.68,.08-.99,0-.09,0-.17,0-.25,0-.08,0-.16-.02-.23h1.01Z"/>
      <path d="M288.99,78.28c-.17,0-.31-.05-.42-.17-.12-.11-.17-.26-.17-.44s.06-.33,.17-.44c.12-.11,.26-.17,.42-.17s.31,.05,.42,.17c.12,.11,.18,.26,.18,.44s-.06,.33-.18,.44c-.12,.11-.26,.17-.42,.17Zm.47,6.14h-.93v-5.2h.93v5.2Z"/>
      <path d="M291.06,79.37c.21-.05,.5-.11,.85-.17,.35-.06,.76-.09,1.22-.09,.41,0,.76,.06,1.03,.18,.27,.12,.49,.28,.65,.49,.16,.21,.28,.46,.35,.75,.07,.29,.1,.62,.1,.97v2.92h-.93v-2.72c0-.32-.02-.59-.07-.82s-.12-.41-.21-.55c-.1-.14-.23-.24-.4-.31-.17-.06-.37-.1-.62-.1-.1,0-.2,0-.31,.01-.11,0-.21,.02-.3,.02-.1,.01-.18,.02-.26,.04-.08,.01-.13,.02-.16,.03v4.39h-.93v-5.05Z"/>
      <path d="M303.69,81.83c0,.39-.05,.76-.16,1.09s-.25,.62-.46,.86c-.2,.24-.44,.43-.73,.56s-.62,.2-1,.2c-.3,0-.57-.04-.79-.12-.23-.08-.4-.16-.51-.23v2.08h-.93v-6.89c.22-.05,.5-.11,.83-.17s.71-.1,1.14-.1c.4,0,.76,.06,1.08,.19,.32,.13,.59,.31,.82,.54s.4,.52,.53,.85c.12,.34,.18,.72,.18,1.14Zm-.97,0c0-.61-.15-1.07-.45-1.4-.3-.33-.7-.49-1.2-.49-.28,0-.5,0-.65,.03-.16,.02-.28,.04-.38,.07v3.28c.11,.09,.28,.18,.49,.27,.21,.09,.45,.13,.7,.13,.27,0,.5-.05,.69-.15,.19-.1,.34-.23,.46-.4s.21-.37,.26-.6c.05-.23,.08-.48,.08-.74Z"/>
      <path d="M304.71,81.83c0-.46,.07-.86,.2-1.21s.31-.63,.53-.85c.22-.23,.47-.4,.76-.51,.29-.11,.58-.17,.88-.17,.7,0,1.24,.22,1.61,.66,.37,.44,.56,1.1,.56,1.99v.16c0,.06,0,.12,0,.17h-3.56c.04,.54,.2,.95,.47,1.23,.27,.28,.7,.42,1.28,.42,.33,0,.6-.03,.82-.08,.22-.06,.39-.11,.5-.17l.13,.78c-.11,.06-.31,.12-.6,.19s-.6,.1-.96,.1c-.45,0-.84-.07-1.17-.21s-.6-.33-.82-.56c-.21-.24-.37-.52-.47-.85s-.16-.69-.16-1.08Zm3.57-.51c0-.42-.1-.77-.32-1.03-.22-.27-.51-.41-.89-.41-.21,0-.4,.04-.57,.12-.16,.08-.3,.19-.42,.33s-.2,.29-.26,.46-.11,.35-.12,.53h2.58Z"/>
      <path d="M312.51,79.11c.08,0,.17,0,.28,.02,.1,0,.21,.02,.3,.04,.1,.02,.19,.03,.28,.05,.08,.02,.14,.03,.18,.04l-.16,.81c-.07-.03-.19-.06-.36-.09s-.39-.06-.66-.06c-.17,0-.34,.02-.51,.06-.17,.04-.28,.06-.33,.07v4.37h-.93v-4.98c.22-.08,.49-.15,.82-.23,.33-.07,.69-.1,1.1-.1Z"/>
      <path d="M316.71,84.54c-.42,0-.79-.07-1.1-.2s-.58-.32-.8-.56c-.22-.24-.38-.52-.49-.85s-.16-.69-.16-1.09,.06-.77,.17-1.1c.12-.33,.28-.62,.5-.87,.21-.24,.48-.43,.79-.57,.31-.14,.66-.21,1.04-.21,.23,0,.47,.02,.7,.06s.46,.1,.67,.19l-.21,.79c-.14-.07-.3-.12-.49-.16s-.38-.06-.58-.06c-.52,0-.92,.16-1.2,.49-.28,.33-.41,.8-.41,1.43,0,.28,.03,.54,.09,.77s.16,.43,.3,.6c.14,.17,.31,.3,.53,.39,.21,.09,.47,.13,.78,.13,.25,0,.47-.02,.67-.07,.2-.05,.36-.1,.47-.15l.13,.78c-.05,.03-.13,.06-.23,.1-.1,.03-.21,.06-.34,.08-.13,.02-.26,.04-.41,.06-.14,.02-.28,.02-.42,.02Z"/>
      <path d="M318.81,81.83c0-.46,.07-.86,.2-1.21s.31-.63,.53-.85c.22-.23,.47-.4,.76-.51,.29-.11,.58-.17,.88-.17,.7,0,1.24,.22,1.61,.66,.37,.44,.56,1.1,.56,1.99v.16c0,.06,0,.12,0,.17h-3.56c.04,.54,.2,.95,.47,1.23,.27,.28,.7,.42,1.28,.42,.33,0,.6-.03,.82-.08,.22-.06,.39-.11,.5-.17l.13,.78c-.11,.06-.31,.12-.6,.19s-.6,.1-.96,.1c-.45,0-.84-.07-1.17-.21s-.6-.33-.82-.56c-.21-.24-.37-.52-.47-.85s-.16-.69-.16-1.08Zm3.57-.51c0-.42-.1-.77-.32-1.03-.22-.27-.51-.41-.89-.41-.21,0-.4,.04-.57,.12-.16,.08-.3,.19-.42,.33s-.2,.29-.26,.46-.11,.35-.12,.53h2.58Z"/>
      <path d="M324.69,79.37c.21-.05,.5-.11,.85-.17,.35-.06,.76-.09,1.22-.09,.41,0,.76,.06,1.03,.18,.27,.12,.49,.28,.65,.49,.16,.21,.28,.46,.35,.75,.07,.29,.1,.62,.1,.97v2.92h-.93v-2.72c0-.32-.02-.59-.07-.82s-.12-.41-.21-.55c-.1-.14-.23-.24-.4-.31-.17-.06-.37-.1-.62-.1-.1,0-.2,0-.31,.01-.11,0-.21,.02-.3,.02-.1,.01-.18,.02-.26,.04-.08,.01-.13,.02-.16,.03v4.39h-.93v-5.05Z"/>
      <path d="M331.3,79.22h1.97v.78h-1.97v2.4c0,.26,.02,.48,.06,.65,.04,.17,.1,.3,.18,.4s.18,.17,.3,.21,.26,.06,.42,.06c.28,0,.5-.03,.67-.1,.17-.06,.29-.11,.36-.13l.18,.77c-.09,.05-.26,.1-.49,.17-.23,.07-.5,.1-.8,.1-.35,0-.64-.04-.88-.13-.23-.09-.42-.23-.55-.41-.14-.18-.24-.4-.29-.67-.06-.26-.08-.57-.08-.91v-4.64l.93-.16v1.61Z"/>
    </g>
    <text transform="translate(29.47 72.42)" font-family="Ubuntu-Regular, Ubuntu" font-size="10"><tspan x="0" y="0">In the </tspan><tspan x="28.37" y="0" letter-spacing="-.02em">E</tspan><tspan x="33.86" y="0" letter-spacing="0em">U</tspan><tspan x="40.64" y="0">, 2022, in percent</tspan></text>
    <text transform="translate(260.4 57.01)" font-family="Ubuntu-Bold, Ubuntu" font-size="10"><tspan x="0" y="0" letter-spacing="-.08em">‘</tspan><tspan x="1.61" y="0" letter-spacing="-.07em">A</tspan><tspan x="8.17" y="0" letter-spacing="0em">’ is the most popu</tspan><tspan x="92.13" y="0" letter-spacing=".01em">l</tspan><tspan x="95.44" y="0">ar let</tspan><tspan x="121.03" y="0" letter-spacing="-.02em">t</tspan><tspan x="125.27" y="0" letter-spacing="0em">er</tspan></text>
    <text transform="translate(249.85 113.78)" fill="#1a181b" font-family="Ubuntu-Regular, Ubuntu" font-size="10"><tspan x="0" y="0">A</tspan></text>
    <text transform="translate(249.85 139.11)" fill="#1a181b" font-family="Ubuntu-Regular, Ubuntu" font-size="10"><tspan x="0" y="0">B</tspan></text>
    <text transform="translate(249.85 164.8)" fill="#1a181b" font-family="Ubuntu-Regular, Ubuntu" font-size="10"><tspan x="0" y="0">C</tspan></text>
    <text transform="translate(249.85 190.85)" fill="#1a181b" font-family="Ubuntu-Regular, Ubuntu" font-size="10"><tspan x="0" y="0">D</tspan></text>
    <text transform="translate(249.85 215.81)" fill="#1a181b" font-family="Ubuntu-Regular, Ubuntu" font-size="10"><tspan x="0" y="0">E</tspan></text>
    <text transform="translate(18.55 113.78)" fill="#1a181b" font-family="Ubuntu-Regular, Ubuntu" font-size="10"><tspan x="0" y="0">A</tspan></text>
    <text transform="translate(18.55 139.11)" fill="#1a181b" font-family="Ubuntu-Regular, Ubuntu" font-size="10"><tspan x="0" y="0">B</tspan></text>
    <text transform="translate(18.55 164.8)" fill="#1a181b" font-family="Ubuntu-Regular, Ubuntu" font-size="10"><tspan x="0" y="0">C</tspan></text>
    <text transform="translate(18.55 190.85)" fill="#1a181b" font-family="Ubuntu-Regular, Ubuntu" font-size="10"><tspan x="0" y="0">D</tspan></text>
    <text transform="translate(18.55 215.81)" fill="#1a181b" font-family="Ubuntu-Regular, Ubuntu" font-size="10"><tspan x="0" y="0">E</tspan></text>
    <g>
      <line x1="66.68" y1="94.87" x2="66.68" y2="232.55" fill="none" stroke="#c0c1c3" stroke-linecap="round" stroke-miterlimit="10" stroke-width=".57"/>
      <line x1="102.38" y1="94.87" x2="102.38" y2="232.55" fill="none" stroke="#c0c1c3" stroke-linecap="round" stroke-miterlimit="10" stroke-width=".57"/>
      <line x1="138.07" y1="94.87" x2="138.07" y2="232.55" fill="none" stroke="#c0c1c3" stroke-linecap="round" stroke-miterlimit="10" stroke-width=".57"/>
      <line x1="173.77" y1="94.87" x2="173.77" y2="232.55" fill="none" stroke="#c0c1c3" stroke-linecap="round" stroke-miterlimit="10" stroke-width=".57"/>
      <line x1="30.99" y1="94.87" x2="30.99" y2="232.55" fill="none" stroke="#c0c1c3" stroke-linecap="round" stroke-miterlimit="10" stroke-width=".85"/>
    </g>
    <rect x="30.99" y="104.44" width="142.78" height="13.54" fill="#039"/>
    <rect x="30.95" y="129.93" width="128.94" height="13.54" fill="#039"/>
    <rect x="30.89" y="155.42" width="107.48" height="13.54" fill="#039"/>
    <rect x="30.87" y="180.91" width="85.59" height="13.54" fill="#039"/>
    <rect x="30.99" y="206.4" width="71.39" height="13.54" fill="#039"/>
    <g>
      <line x1="297.38" y1="94.87" x2="297.38" y2="232.55" fill="none" stroke="#c0c1c3" stroke-linecap="round" stroke-miterlimit="10" stroke-width=".57"/>
      <line x1="333.07" y1="94.87" x2="333.07" y2="232.55" fill="none" stroke="#c0c1c3" stroke-linecap="round" stroke-miterlimit="10" stroke-width=".57"/>
      <line x1="368.77" y1="94.87" x2="368.77" y2="232.55" fill="none" stroke="#c0c1c3" stroke-linecap="round" stroke-miterlimit="10" stroke-width=".57"/>
      <line x1="404.46" y1="94.87" x2="404.46" y2="232.55" fill="none" stroke="#c0c1c3" stroke-linecap="round" stroke-miterlimit="10" stroke-width=".57"/>
      <line x1="261.68" y1="94.87" x2="261.68" y2="232.55" fill="none" stroke="#c0c1c3" stroke-linecap="round" stroke-miterlimit="10" stroke-width=".85"/>
    </g>
    <rect x="261.68" y="104.44" width="142.78" height="13.54" fill="#039"/>
    <rect x="261.64" y="129.93" width="128.94" height="13.54" fill="#039"/>
    <rect x="261.59" y="155.42" width="107.48" height="13.54" fill="#039"/>
    <rect x="261.57" y="180.91" width="85.59" height="13.54" fill="#039"/>
    <rect x="261.68" y="206.4" width="71.39" height="13.54" fill="#039"/>
    <rect x="262.23" y="27.96" width="38.65" height=".94" fill="#039"/>
    <rect x="31.41" y="27.96" width="52.9" height=".94" fill="#039"/>
    <text transform="translate(262.14 25.54)" font-family="Ubuntu-Bold, Ubuntu" font-size="10"><tspan x="0" y="0">BE</tspan><tspan x="12.78" y="0" letter-spacing=".03em">T</tspan><tspan x="19.18" y="0">TER</tspan></text>
    <text transform="translate(30.58 25.54)" font-family="Ubuntu-Bold, Ubuntu" font-size="10"><tspan x="0" y="0">N</tspan><tspan x="7.56" y="0" letter-spacing="-.02em">O</tspan><tspan x="15.23" y="0" letter-spacing="0em">T IDEAL</tspan></text>
  </g>
</svg>