<?xml version="1.0" encoding="UTF-8"?>
<svg xmlns="http://www.w3.org/2000/svg" viewBox="0 0 471.19 250">
  <g id="Hintergrund">
    <rect x="-.51" y="-.88" width="471.19" height="250" fill="#f3f5fa"/>
  </g>
  <g id="Graphic">
    <line x1="205.7" y1="204.57" x2="48" y2="204.57" fill="none" stroke="#c0c1c3" stroke-linecap="round" stroke-miterlimit="10" stroke-width=".85"/>
    <line x1="205.7" y1="171.3" x2="48" y2="171.3" fill="none" stroke="#c0c1c3" stroke-linecap="round" stroke-miterlimit="10" stroke-width=".57"/>
    <line x1="205.7" y1="138.04" x2="48" y2="138.04" fill="none" stroke="#c0c1c3" stroke-linecap="round" stroke-miterlimit="10" stroke-width=".57"/>
    <line x1="205.7" y1="104.77" x2="48" y2="104.77" fill="none" stroke="#c0c1c3" stroke-linecap="round" stroke-miterlimit="10" stroke-width=".57"/>
    <line x1="205.7" y1="71.51" x2="48" y2="71.51" fill="none" stroke="#c0c1c3" stroke-linecap="round" stroke-miterlimit="10" stroke-width=".57"/>
    <line x1="205.7" y1="88.14" x2="48" y2="88.14" fill="none" stroke="#c0c1c3" stroke-linecap="round" stroke-miterlimit="10" stroke-width=".57"/>
    <line x1="205.7" y1="121.41" x2="48" y2="121.41" fill="none" stroke="#c0c1c3" stroke-linecap="round" stroke-miterlimit="10" stroke-width=".57"/>
    <line x1="205.7" y1="154.67" x2="48" y2="154.67" fill="none" stroke="#c0c1c3" stroke-linecap="round" stroke-miterlimit="10" stroke-width=".57"/>
    <line x1="205.7" y1="187.93" x2="48" y2="187.93" fill="none" stroke="#c0c1c3" stroke-linecap="round" stroke-miterlimit="10" stroke-width=".57"/>
    <line x1="435.56" y1="204.57" x2="277.86" y2="204.57" fill="none" stroke="#c0c1c3" stroke-linecap="round" stroke-miterlimit="10" stroke-width=".85"/>
    <line x1="435.56" y1="171.3" x2="277.86" y2="171.3" fill="none" stroke="#c0c1c3" stroke-linecap="round" stroke-miterlimit="10" stroke-width=".57"/>
    <line x1="435.56" y1="138.04" x2="277.86" y2="138.04" fill="none" stroke="#c0c1c3" stroke-linecap="round" stroke-miterlimit="10" stroke-width=".57"/>
    <line x1="435.56" y1="104.77" x2="277.86" y2="104.77" fill="none" stroke="#c0c1c3" stroke-linecap="round" stroke-miterlimit="10" stroke-width=".57"/>
    <line x1="435.56" y1="71.51" x2="277.86" y2="71.51" fill="none" stroke="#c0c1c3" stroke-linecap="round" stroke-miterlimit="10" stroke-width=".57"/>
  </g>
  <g id="Text">
    <text transform="translate(47.18 217.63)" fill="#58585a" font-family="Ubuntu-Regular, Ubuntu" font-size="10"><tspan x="0" y="0">2020</tspan></text>
    <text transform="translate(187.74 217.63)" fill="#58585a" font-family="Ubuntu-Regular, Ubuntu" font-size="10"><tspan x="0" y="0">2022</tspan></text>
    <text transform="translate(118.94 217.63)" fill="#58585a" font-family="Ubuntu-Regular, Ubuntu" font-size="10"><tspan x="0" y="0">2021</tspan></text>
    <text transform="translate(29.9 107.39)" fill="#58585a" font-family="Ubuntu-Regular, Ubuntu" font-size="10"><tspan x="0" y="0">60</tspan></text>
    <text transform="translate(29.9 123.61)" fill="#58585a" font-family="Ubuntu-Regular, Ubuntu" font-size="10"><tspan x="0" y="0">50</tspan></text>
    <text transform="translate(29.9 74.23)" fill="#58585a" font-family="Ubuntu-Regular, Ubuntu" font-size="10"><tspan x="0" y="0">80</tspan></text>
    <text transform="translate(29.9 90.52)" fill="#58585a" font-family="Ubuntu-Regular, Ubuntu" font-size="10"><tspan x="0" y="0">70</tspan></text>
    <text transform="translate(29.9 139.6)" fill="#58585a" font-family="Ubuntu-Regular, Ubuntu" font-size="10"><tspan x="0" y="0">40</tspan></text>
    <text transform="translate(29.9 156.72)" fill="#58585a" font-family="Ubuntu-Regular, Ubuntu" font-size="10"><tspan x="0" y="0">30</tspan></text>
    <text transform="translate(29.9 190)" fill="#58585a" font-family="Ubuntu-Regular, Ubuntu" font-size="10"><tspan x="0" y="0">10</tspan></text>
    <text transform="translate(29.9 173.31)" fill="#58585a" font-family="Ubuntu-Regular, Ubuntu" font-size="10"><tspan x="0" y="0">20</tspan></text>
    <text transform="translate(35.54 203.67)" fill="#58585a" font-family="Ubuntu-Regular, Ubuntu" font-size="10"><tspan x="0" y="0">0</tspan></text>
    <line x1="48.21" y1="204.54" x2="48.21" y2="71.52" fill="none" stroke="#c0c1c3" stroke-linecap="round" stroke-miterlimit="10" stroke-width=".57"/>
    <line x1="126.89" y1="204.54" x2="126.89" y2="71.52" fill="none" stroke="#c0c1c3" stroke-linecap="round" stroke-miterlimit="10" stroke-width=".57"/>
    <line x1="205.57" y1="204.54" x2="205.57" y2="71.52" fill="none" stroke="#c0c1c3" stroke-linecap="round" stroke-miterlimit="10" stroke-width=".57"/>
    <text transform="translate(277.04 217.63)" fill="#58585a" font-family="Ubuntu-Regular, Ubuntu" font-size="10"><tspan x="0" y="0">2020</tspan></text>
    <text transform="translate(413.01 217.63)" fill="#58585a" font-family="Ubuntu-Regular, Ubuntu" font-size="10"><tspan x="0" y="0">2022</tspan></text>
    <text transform="translate(259.76 107.39)" fill="#58585a" font-family="Ubuntu-Regular, Ubuntu" font-size="10"><tspan x="0" y="0">60</tspan></text>
    <text transform="translate(259.76 74.23)" fill="#58585a" font-family="Ubuntu-Regular, Ubuntu" font-size="10"><tspan x="0" y="0">80</tspan></text>
    <text transform="translate(259.76 139.6)" fill="#58585a" font-family="Ubuntu-Regular, Ubuntu" font-size="10"><tspan x="0" y="0">40</tspan></text>
    <text transform="translate(259.76 173.31)" fill="#58585a" font-family="Ubuntu-Regular, Ubuntu" font-size="10"><tspan x="0" y="0">20</tspan></text>
    <text transform="translate(265.4 203.67)" fill="#58585a" font-family="Ubuntu-Regular, Ubuntu" font-size="10"><tspan x="0" y="0">0</tspan></text>
    <path d="M277.91,203.73s4.9-.61,4.9-2.45,3.67-3.06,3.67-3.06c3.67-4.9,6.73-5.51,6.12-7.96s1.22-9.18,1.22-11.02,3.67-5.51,3.67-7.34,1.84-6.12,2.45-7.96c.61-1.84,3.06-2.45,3.67-.61s1.22,4.9,2.45,6.73c1.22,1.84,3.67,7.34,3.67,7.34,3.67-1.84,5.51-7.34,5.51-9.79s0-5.51,.61-6.73c.61-1.22,3.06-5.51,3.67-6.73s2.45,.61,4.28-1.22c1.84-1.84,4.28-4.9,4.28-6.12s4.9-.61,4.9-3.67,3.67-6.73,4.28-6.73,3.67,6.12,3.67,6.12c0,0,1.84,6.73,2.45,7.34s2.45,6.73,2.45,6.73c3.06-3.67,4.9-6.73,4.9-6.73l1.22-5.51s4.9-6.12,4.28-7.96c-.61-1.84,1.84-4.9,1.84-6.12s2.45-3.67,2.45-5.51,1.22-3.06,1.84-5.51,3.67-5.51,3.67-5.51l3.67-5.51,1.84-4.9,5.51-5.51s3.06-3.67,2.45-5.51c-.61-1.84,1.22-3.67,1.84-5.51,.61-1.84,3.06-3.67,4.9-1.84,1.84,1.84,4.9,.61,4.9,.61,0,0,7.34,.61,7.96,3.67,.61,3.06,2.45,7.34,2.45,7.34,0,0,1.84,4.28,1.84,5.51s.61,4.9,.61,4.9l.61,9.18s0,4.28,.61,6.73c.61,2.45,0,5.51,1.22,8.57,1.22,3.06,4.9,3.06,5.51,1.22,.61-1.84,1.84-4.9,1.84-4.9,0,0,3.67,.61,4.28-.61s1.22-5.51,1.22-5.51l4.28-3.06,4.28-2.45,4.9,2.45" fill="none" stroke="#039" stroke-miterlimit="10" stroke-width="2"/>
    <rect x="259.54" y="28.83" width="39" height=".94" fill="#039"/>
    <rect x="30.48" y="28.83" width="52.91" height=".94" fill="#039"/>
    <text transform="translate(259.72 26.42)" font-family="Ubuntu-Bold, Ubuntu" font-size="10"><tspan x="0" y="0">BE</tspan><tspan x="12.78" y="0" letter-spacing=".03em">T</tspan><tspan x="19.18" y="0">TER</tspan></text>
    <text transform="translate(29.66 26.42)" font-family="Ubuntu-Bold, Ubuntu" font-size="10"><tspan x="0" y="0">N</tspan><tspan x="7.56" y="0" letter-spacing="-.02em">O</tspan><tspan x="15.23" y="0" letter-spacing="0em">T IDEAL</tspan></text>
    <path d="M48.05,203.73s4.9-.61,4.9-2.45,3.67-3.06,3.67-3.06c3.67-4.9,6.73-5.51,6.12-7.96-.61-2.45,1.22-9.18,1.22-11.02s3.67-5.51,3.67-7.34,1.84-6.12,2.45-7.96c.61-1.84,3.06-2.45,3.67-.61s1.22,4.9,2.45,6.73,3.67,7.34,3.67,7.34c3.67-1.84,5.51-7.34,5.51-9.79s0-5.51,.61-6.73,3.06-5.51,3.67-6.73,2.45,.61,4.28-1.22c1.84-1.84,4.28-4.9,4.28-6.12s4.9-.61,4.9-3.67,3.67-6.73,4.28-6.73,3.67,6.12,3.67,6.12c0,0,1.84,6.73,2.45,7.34s2.45,6.73,2.45,6.73c3.06-3.67,4.9-6.73,4.9-6.73l1.22-5.51s4.9-6.12,4.28-7.96c-.61-1.84,1.84-4.9,1.84-6.12s2.45-3.67,2.45-5.51,1.22-3.06,1.84-5.51,3.67-5.51,3.67-5.51l3.67-5.51,1.84-4.9,5.51-5.51s3.06-3.67,2.45-5.51c-.61-1.84,1.22-3.67,1.84-5.51,.61-1.84,3.06-3.67,4.9-1.84s4.9,.61,4.9,.61c0,0,7.34,.61,7.96,3.67,.61,3.06,2.45,7.34,2.45,7.34,0,0,1.84,4.28,1.84,5.51s.61,4.9,.61,4.9l.61,9.18s0,4.28,.61,6.73,0,5.51,1.22,8.57c1.22,3.06,4.9,3.06,5.51,1.22,.61-1.84,1.84-4.9,1.84-4.9,0,0,3.67,.61,4.28-.61s1.22-5.51,1.22-5.51l4.28-3.06,4.28-2.45,4.9,2.45" fill="none" stroke="#039" stroke-miterlimit="10" stroke-width="2"/>
  </g>
</svg>