<?xml version="1.0" encoding="UTF-8"?>
<svg xmlns="http://www.w3.org/2000/svg" viewBox="0 0 471.19 250">
  <g id="Hintergrund">
    <rect x="-.91" y="-.88" width="471.19" height="250" fill="#f3f5fa"/>
  </g>
  <g id="Graphic">
    <circle cx="145.26" cy="135.55" r="38.56" transform="translate(-5.19 5.79) rotate(-2.24)" fill="#b2c2e0"/>
    <path d="M172.44,108.38c7.01,7.01,11.34,16.68,11.34,27.37,0,21.38-17.33,38.71-38.71,38.71s-38.71-17.33-38.71-38.71c0-21.38,17.33-38.71,38.71-38.71v38.71s27.37-27.37,27.37-27.37Z" fill="#039"/>
  </g>
  <g id="Text">
    <text transform="translate(130.17 79.94)" font-family="Ubuntu-Regular, Ubuntu" font-size="10"><tspan x="0" y="0">85</tspan></text>
    <text transform="translate(167.08 79.94)" font-family="Ubuntu-Regular, Ubuntu" font-size="10"><tspan x="0" y="0">15</tspan></text>
    <g>
      <circle cx="317.4" cy="135.55" r="38.56" transform="translate(-5.06 12.52) rotate(-2.24)" fill="#b2c2e0"/>
      <path d="M344.57,108.38c7.01,7.01,11.34,16.68,11.34,27.37,0,21.38-17.33,38.71-38.71,38.71s-38.71-17.33-38.71-38.71c0-21.38,17.33-38.71,38.71-38.71v38.71s27.37-27.37,27.37-27.37Z" fill="#039"/>
      <text transform="translate(299.53 113.82)" fill="#fff" font-family="Ubuntu-Regular, Ubuntu" font-size="10"><tspan x="0" y="0">85</tspan></text>
      <text transform="translate(321.63 113.82)" fill="#039" font-family="Ubuntu-Regular, Ubuntu" font-size="10"><tspan x="0" y="0">15</tspan></text>
    </g>
    <circle cx="120.81" cy="77.41" r="4.78" fill="#039"/>
    <circle cx="157.98" cy="77.41" r="4.78" fill="#b2c2e0"/>
    <rect x="295.39" y="30.54" width="38.98" height=".94" fill="#039"/>
    <rect x="117.86" y="30.54" width="52.45" height=".94" fill="#039"/>
    <text transform="translate(295.56 28.12)" font-family="Ubuntu-Bold, Ubuntu" font-size="10"><tspan x="0" y="0">BE</tspan><tspan x="12.78" y="0" letter-spacing=".03em">T</tspan><tspan x="19.18" y="0">TER</tspan></text>
    <text transform="translate(117.48 28.12)" font-family="Ubuntu-Bold, Ubuntu" font-size="10"><tspan x="0" y="0">N</tspan><tspan x="7.56" y="0" letter-spacing="-.02em">O</tspan><tspan x="15.23" y="0" letter-spacing="0em">T IDEAL</tspan></text>
  </g>
</svg>